SplineFontDB: 3.0
FontName: Antonio-Bold
FullName: Antonio Bold
FamilyName: Antonio
Weight: Bold
Copyright: Copyright (c) 2011-12, vernon adams (vern@newtypography.co.uk), with Reserved Font Names 'Antonio'
Version: 1
ItalicAngle: 0
UnderlinePosition: 0
UnderlineWidth: 0
Ascent: 1638
Descent: 410
UFOAscent: 1775
UFODescent: -647
LayerCount: 2
Layer: 0 0 "Back"  1
Layer: 1 0 "Fore"  0
FSType: 0
OS2Version: 0
OS2_WeightWidthSlopeOnly: 0
OS2_UseTypoMetrics: 1
CreationTime: 1375124463
ModificationTime: 1375457006
PfmFamily: 17
TTFWeight: 700
TTFWidth: 1
LineGap: 0
VLineGap: 0
OS2TypoAscent: 2382
OS2TypoAOffset: 0
OS2TypoDescent: -670
OS2TypoDOffset: 0
OS2TypoLinegap: 0
OS2WinAscent: 2382
OS2WinAOffset: 0
OS2WinDescent: 670
OS2WinDOffset: 0
HheadAscent: 2382
HheadAOffset: 0
HheadDescent: -670
HheadDOffset: 0
OS2Vendor: 'newt'
Lookup: 258 0 0 "'kern' Horizontal Kerning in Latin lookup 0"  {"kernHorizontalKerninginLatinloo kerning class 1"  } ['kern' ('DFLT' <'dflt' > 'latn' <'dflt' > ) ]
Lookup: 260 0 0 "markMarkPositioninglookup2"  {"markMarkPositioninglookup2 subtable"  } ['mark' ('latn' <'dflt' > 'grek' <'dflt' > 'DFLT' <'dflt' > ) ]
MarkAttachClasses: 1
DEI: 91125
KernClass2: 21 27 "kernHorizontalKerninginLatinloo kerning class 1" 
 89 A Aacute Abreve Acircumflex Adieresis Agrave Amacron Aogonek Aring Atilde uni0200 uni0202
 9 B uni1E02
 27 D Dcaron Dcroat Eth uni1E0A
 9 F uni1E1E
 52 G Gbreve Gcircumflex Gcommaaccent Gdotaccent uni01F4
 13 J Jcircumflex
 14 K Kcommaaccent
 28 L Lacute Lcaron Lcommaaccent
 9 P uni1E56
 44 R Racute Rcaron Rcommaaccent uni0210 uni0212
 1 V
 37 W Wacute Wcircumflex Wdieresis Wgrave
 37 Y Yacute Ycircumflex Ydieresis Ygrave
 9 f uni1E1F
 52 g gbreve gcircumflex gcommaaccent gdotaccent uni01F5
 14 k kcommaaccent
 96 o oacute obreve ocircumflex odieresis ograve ohungarumlaut omacron oslash otilde uni020D uni020F
 44 r racute rcaron rcommaaccent uni0211 uni0213
 37 w wacute wcircumflex wdieresis wgrave

StartChar: A
Encoding: 65 65 0
Width: 927
VWidth: 0
GlyphClass: 2
Flags: W
HStem: 0 21G<27.5 287.92 646.825 899.5> 314 215<349.5 579.5> 1740 20G<275.648 635.534>
AnchorPoint: "ogonek" 779 0 basechar 0
LayerCount: 2
UndoRedoHistory
Layer: 1
Undoes
EndUndoes
Redoes
EndRedoes
EndUndoRedoHistory
Fore
SplineSet
278.5 1760 m 1
 632.5 1760 l 1
 899.5 0 l 1
 649.5 0 l 1
 607.5 314 l 1
 323.5 314 l 1
 285.5 0 l 1
 27.5 0 l 1
 278.5 1760 l 1
349.5 529 m 1
 579.5 529 l 1
 461.5 1413 l 1
 457.5 1413 l 1
 349.5 529 l 1
EndSplineSet
EndChar

StartChar: AE
Encoding: 198 198 1
Width: 1246
VWidth: 0
GlyphClass: 2
Flags: W
HStem: 0 231<874 1164> 314 198<396 606> 785 232<874 1136> 1529 231<571 606 874 1152>
VStem: 606 268<231 314 512 785 1017 1529>
LayerCount: 2
UndoRedoHistory
Layer: 1
Undoes
EndUndoes
Redoes
EndRedoes
EndUndoRedoHistory
Fore
SplineSet
366 1760 m 1
 1152 1760 l 1
 1152 1529 l 1
 874 1529 l 1
 874 1017 l 1
 1136 1017 l 1
 1136 785 l 1
 874 785 l 1
 874 231 l 1
 1164 231 l 1
 1164 0 l 1
 606 0 l 1
 606 314 l 1
 366 314 l 1
 312 0 l 1
 52 0 l 1
 366 1760 l 1
606 512 m 1
 606 1530 l 1
 571 1529 l 1
 396 512 l 1
 606 512 l 1
EndSplineSet
EndChar

StartChar: B
Encoding: 66 66 11
Width: 984
VWidth: 0
GlyphClass: 2
Flags: W
HStem: 0 208<400 593.834> 847 201<400 587.421> 1550 210<400 583.136>
VStem: 132 268<208 847 1048 1550> 611 264<1066.09 1524.56> 639 270<248.921 810.75>
LayerCount: 2
UndoRedoHistory
Layer: 1
Undoes
EndUndoes
Redoes
EndRedoes
EndUndoRedoHistory
Fore
SplineSet
132 1760 m 1xf4
 513 1760 l 2
 778 1760 874 1646 875 1362 c 1
 875 1308 l 2xf8
 875 1125 832 1005 721 959 c 1
 859 913 909 748 909 544 c 2
 909 499 l 1
 907 146 795 0 521 0 c 2
 132 0 l 1
 132 1760 l 1xf4
639 602 m 2xf4
 639 773 615 847 513 847 c 2
 400 847 l 1
 400 208 l 1
 495 208 l 2
 601 208 639 270 639 460 c 2
 639 602 l 2xf4
611 1379 m 1xf8
 610 1521 574 1550 490 1550 c 2
 400 1550 l 1
 400 1048 l 1
 499 1048 l 2
 592 1048 611 1092 611 1273 c 2
 611 1379 l 1xf8
EndSplineSet
EndChar

StartChar: C
Encoding: 67 67 12
Width: 969
VWidth: 0
GlyphClass: 2
Flags: W
HStem: -20 230<413.52 576.266> 1548 232<419.149 581.508>
VStem: 110 270<247.648 1506.54> 612 263<248.937 729 1070 1517.72>
AnchorPoint: "cedilla" 482 0 basechar 0
LayerCount: 2
UndoRedoHistory
Layer: 1
Undoes
EndUndoes
Redoes
EndRedoes
EndUndoRedoHistory
Fore
SplineSet
110 1253 m 2
 110 1575 206 1780 500 1780 c 0
 766 1780 871 1601 871 1312 c 2
 871 1070 l 1
 612 1070 l 1
 612 1295 l 2
 612 1468 590 1548 502 1548 c 0
 404 1548 380 1454 380 1296 c 2
 380 474 l 2
 380 290 406 210 496 210 c 0
 586 210 612 292 612 477 c 2
 612 729 l 1
 875 729 l 1
 875 480 l 2
 875 145 763 -20 493 -20 c 0
 237 -20 110 163 110 486 c 2
 110 1253 l 2
EndSplineSet
EndChar

StartChar: D
Encoding: 68 68 18
Width: 1008
VWidth: 0
GlyphClass: 2
Flags: W
HStem: 0 208<400 591.121> 1554 206<400 575.144>
VStem: 132 268<208 1554> 629 268<252.206 1509.23>
LayerCount: 2
UndoRedoHistory
Layer: 1
Undoes
EndUndoes
Redoes
EndRedoes
EndUndoRedoHistory
Fore
SplineSet
132 1760 m 1
 527 1760 l 2
 794 1760 896 1594 896 1308 c 2
 897 514 l 2
 897 167 794 0 518 0 c 2
 132 0 l 1
 132 1760 l 1
628 1301 m 2
 628 1481 590 1554 479 1554 c 2
 400 1554 l 1
 400 208 l 1
 488 208 l 2
 582 208 629 254 629 432 c 2
 628 1301 l 2
EndSplineSet
EndChar

StartChar: Delta
Encoding: 916 916 21
Width: 921
VWidth: 0
GlyphClass: 2
Flags: W
HStem: 0 180<306 612>
LayerCount: 2
UndoRedoHistory
Layer: 1
Undoes
EndUndoes
Redoes
EndRedoes
EndUndoRedoHistory
Fore
SplineSet
277 1353 m 1
 641 1353 l 1
 887 0 l 1
 34 0 l 1
 277 1353 l 1
612 180 m 1
 475 1124 l 1
 443 1124 l 1
 306 180 l 1
 612 180 l 1
EndSplineSet
EndChar

StartChar: E
Encoding: 69 69 22
Width: 800
VWidth: 0
GlyphClass: 2
Flags: W
HStem: 0 231<400 734> 791 226<400 706> 1529 231<400 722>
VStem: 132 602<0 231 1529 1760> 132 268<231 791 1017 1529>
AnchorPoint: "ogonek" 466 0 basechar 0
LayerCount: 2
UndoRedoHistory
Layer: 1
Undoes
EndUndoes
Redoes
EndRedoes
EndUndoRedoHistory
Fore
SplineSet
132 1760 m 1xf0
 722 1760 l 1
 722 1529 l 1
 400 1529 l 1
 400 1017 l 1
 706 1017 l 1
 706 791 l 1
 400 791 l 1
 400 231 l 1xe8
 734 231 l 1
 734 0 l 1
 132 0 l 1
 132 1760 l 1xf0
EndSplineSet
EndChar

StartChar: Euro
Encoding: 8364 8364 33
Width: 1076
VWidth: 0
GlyphClass: 2
Flags: W
HStem: -20 230<413.52 576.266> 725 144<23 164 304 548> 966 136<23 164 304 548> 1548 232<419.149 581.508>
VStem: 110 270<247.648 1506.54> 164 140<869 966> 612 263<248.937 729 1070 1517.72>
CounterMasks: 1 f0
LayerCount: 2
UndoRedoHistory
Layer: 1
Undoes
EndUndoes
Redoes
EndRedoes
EndUndoRedoHistory
Fore
SplineSet
23 1102 m 1xf6
 548 1102 l 1
 548 966 l 1
 304 966 l 1
 304 869 l 1
 548 869 l 1
 548 725 l 1
 23 725 l 1
 23 869 l 1
 164 869 l 1
 164 966 l 1
 23 966 l 1
 23 1102 l 1xf6
EndSplineSet
Refer: 12 67 N 1 0 0 1 0 0 2
EndChar

StartChar: F
Encoding: 70 70 34
Width: 791
VWidth: 0
GlyphClass: 2
Flags: W
HStem: 0 21G<132 400> 825 234<400 712> 1527 233<400 736>
VStem: 132 268<0 825 1059 1527>
LayerCount: 2
UndoRedoHistory
Layer: 1
Undoes
EndUndoes
Redoes
EndRedoes
EndUndoRedoHistory
Fore
SplineSet
132 1760 m 1
 736 1760 l 1
 736 1527 l 1
 400 1527 l 1
 400 1059 l 1
 712 1059 l 1
 712 825 l 1
 400 825 l 1
 400 0 l 1
 132 0 l 1
 132 1760 l 1
EndSplineSet
EndChar

StartChar: G
Encoding: 71 71 35
Width: 1000
VWidth: 0
GlyphClass: 2
Flags: W
HStem: -18 228<421.423 596.123> 0 21G<755.26 880> 766 195<511 646> 1548 232<419.461 601.755>
VStem: 110 270<248.34 1513.46> 511 369<766 961> 630 250<1145 1519.5> 646 234<261.425 766> 760 120<0 60.4909>
LayerCount: 2
UndoRedoHistory
Layer: 1
Undoes
EndUndoes
Redoes
EndRedoes
EndUndoRedoHistory
Fore
SplineSet
110 1280 m 2xb880
 110 1595 224 1780 509 1780 c 0
 818 1780 880 1591 880 1270 c 2
 880 1145 l 1
 630 1145 l 1
 630 1329 l 2xba
 630 1487 603 1548 513 1548 c 0
 413 1548 380 1481 380 1282 c 2
 380 519 l 2
 380 298 403 210 507 210 c 0
 608 210 646 299 646 529 c 2
 646 766 l 1xb9
 511 766 l 1
 511 961 l 1
 880 961 l 1xbc
 880 0 l 1
 760 0 l 1x7880
 719 173 l 1
 690 52 584 -18 463 -18 c 0
 251 -18 110 139 110 515 c 2
 110 1280 l 2xb880
EndSplineSet
EndChar

StartChar: H
Encoding: 72 72 40
Width: 1040
VWidth: 0
GlyphClass: 2
Flags: W
HStem: 0 21G<132 400 640 908> 818 230<400 640> 1740 20G<132 400 640 908>
VStem: 132 268<0 818 1048 1760> 640 268<0 818 1048 1760>
LayerCount: 2
UndoRedoHistory
Layer: 1
Undoes
EndUndoes
Redoes
EndRedoes
EndUndoRedoHistory
Fore
SplineSet
640 1760 m 1
 908 1760 l 1
 908 0 l 1
 640 0 l 1
 640 818 l 1
 400 818 l 1
 400 0 l 1
 132 0 l 1
 132 1760 l 1
 400 1760 l 1
 400 1048 l 1
 640 1048 l 1
 640 1760 l 1
EndSplineSet
EndChar

StartChar: Hbar
Encoding: 294 294 41
Width: 1040
VWidth: 0
GlyphClass: 2
Flags: W
HStem: 0 21<132 400 640 908> 818 230<400 640> 1378 131<55 1005> 1740 20<132 400 640 908>
VStem: 132 268<0 818 1048 1760> 640 268<0 818 1048 1760>
LayerCount: 2
UndoRedoHistory
Layer: 1
Undoes
EndUndoes
Redoes
EndRedoes
EndUndoRedoHistory
Fore
SplineSet
55 1509 m 1
 1005 1509 l 1
 1005 1378 l 1
 55 1378 l 1
 55 1509 l 1
EndSplineSet
Refer: 40 72 N 1 0 0 1 0 0 2
EndChar

StartChar: I
Encoding: 73 73 43
Width: 543
VWidth: 0
GlyphClass: 2
Flags: W
HStem: 0 21G<137.5 405.5> 1740 20G<137.5 405.5>
VStem: 137.5 268<0 1760>
AnchorPoint: "ogonek" 228 0 basechar 0
LayerCount: 2
UndoRedoHistory
Layer: 1
Undoes
EndUndoes
Redoes
EndRedoes
EndUndoRedoHistory
Fore
SplineSet
137.5 1760 m 1
 405.5 1760 l 1
 405.5 0 l 1
 137.5 0 l 1
 137.5 1760 l 1
EndSplineSet
EndChar

StartChar: J
Encoding: 74 74 54
Width: 946
VWidth: 0
GlyphClass: 2
Flags: W
HStem: -20 230<365.421 513.66> 1740 20G<540.5 808.5>
VStem: 82.5 259<230.702 703> 540.5 268<228.241 1760>
AnchorPoint: "circumflex" 660 1746 basechar 0
LayerCount: 2
UndoRedoHistory
Layer: 1
Undoes
EndUndoes
Redoes
EndRedoes
EndUndoRedoHistory
Fore
SplineSet
540.5 1760 m 1
 808.5 1760 l 1
 808.5 431 l 2
 808.5 142 674.5 -20 448.5 -20 c 0
 218.5 -20 82.5 119 82.5 389 c 2
 82.5 703 l 1
 341.5 703 l 1
 341.5 402 l 2
 341.5 297 353.5 210 440.5 210 c 0
 528.5 210 540.5 290 540.5 418 c 2
 540.5 1760 l 1
EndSplineSet
EndChar

StartChar: K
Encoding: 75 75 56
Width: 981
VWidth: 0
GlyphClass: 2
Flags: W
HStem: 0 21G<132 402 678.114 968> 1740 20G<132 400 661.383 945>
VStem: 132 270<0 822 950 1760>
LayerCount: 2
UndoRedoHistory
Layer: 1
Undoes
EndUndoes
Redoes
EndRedoes
EndUndoRedoHistory
Fore
SplineSet
668 1760 m 1
 945 1760 l 1
 653 892 l 1
 968 0 l 1
 685 0 l 1
 402 822 l 1
 402 0 l 1
 132 0 l 1
 132 1760 l 1
 400 1760 l 1
 400 950 l 1
 668 1760 l 1
EndSplineSet
EndChar

StartChar: L
Encoding: 76 76 58
Width: 752
VWidth: 0
GlyphClass: 2
Flags: W
HStem: 0 228<400 739> 1740 20G<132 400>
VStem: 132 268<228 1760>
LayerCount: 2
UndoRedoHistory
Layer: 1
Undoes
EndUndoes
Redoes
EndRedoes
EndUndoRedoHistory
Fore
SplineSet
132 1760 m 1
 400 1760 l 1
 400 228 l 1
 739 228 l 1
 739 0 l 1
 132 0 l 1
 132 1760 l 1
EndSplineSet
EndChar

StartChar: Lslash
Encoding: 321 321 63
Width: 794
VWidth: 0
GlyphClass: 2
Flags: W
HStem: 0 228<400 739> 1740 20<132 400>
VStem: 132 268<228 1760>
LayerCount: 2
UndoRedoHistory
Layer: 1
Undoes
EndUndoes
Redoes
EndRedoes
EndUndoRedoHistory
Fore
SplineSet
-1 916 m 1
 615 1145 l 1
 615 961 l 1
 -1 732 l 1
 -1 916 l 1
EndSplineSet
Refer: 58 76 N 1 0 0 1 0 0 2
EndChar

StartChar: M
Encoding: 77 77 64
Width: 1418
VWidth: 0
GlyphClass: 2
Flags: W
HStem: 0 21G<132 369 1046 1285> 1740 20G<132 468.888 946.345 1285>
VStem: 132 237<0 1258> 1046 239<0 1258>
LayerCount: 2
UndoRedoHistory
Layer: 1
Undoes
EndUndoes
Redoes
EndRedoes
EndUndoRedoHistory
Fore
SplineSet
950 1760 m 1
 1285 1760 l 1
 1285 0 l 1
 1046 0 l 1
 1046 656 l 1
 1056 1258 l 1
 819 8 l 1
 606 8 l 1
 359 1258 l 1
 369 656 l 1
 369 0 l 1
 132 0 l 1
 132 1760 l 1
 465 1760 l 1
 715 474 l 1
 950 1760 l 1
EndSplineSet
EndChar

StartChar: N
Encoding: 78 78 65
Width: 1069
VWidth: 0
GlyphClass: 2
Flags: W
HStem: 0 21G<132 379 739.992 937> 1740 20G<132 349.064 696 937>
VStem: 132 247<0 1072.55> 132 232<651.451 1093> 696 241<821.827 1760> 715 222<704 1066.17>
LayerCount: 2
UndoRedoHistory
Layer: 1
Undoes
EndUndoes
Redoes
EndRedoes
EndUndoRedoHistory
Fore
SplineSet
696 1760 m 1xc8
 937 1760 l 1xc8
 937 0 l 1
 747 0 l 1
 364 1093 l 1xd4
 379 631 l 1
 379 0 l 1
 132 0 l 1xe0
 132 1760 l 1
 342 1760 l 1
 715 704 l 1xd4
 696 1184 l 1
 696 1760 l 1xc8
EndSplineSet
EndChar

StartChar: O
Encoding: 79 79 70
Width: 999
VWidth: 0
GlyphClass: 2
Flags: W
HStem: -20 232<415.242 586.467> 1549 232<417.229 584.271>
VStem: 110 270<246.389 1511.52> 619 269<246.389 1521.64>
AnchorPoint: "hungarumlaut" 503 1761 basechar 0
AnchorPoint: "ogonek" 440 -4 basechar 0
LayerCount: 2
UndoRedoHistory
Layer: 1
Undoes
EndUndoes
Redoes
EndRedoes
EndUndoRedoHistory
Fore
SplineSet
110 1297 m 2
 110 1600 223 1781 505 1781 c 0
 787 1781 888 1600 888 1297 c 2
 888 492 l 2
 888 155 776 -20 502 -20 c 0
 228 -20 110 155 110 492 c 2
 110 1297 l 2
619 1309 m 2
 619 1462 600 1549 505 1549 c 0
 408 1549 380 1467 380 1310 c 2
 380 489 l 2
 380 296 397 212 502 212 c 0
 601 212 619 300 619 489 c 2
 619 1309 l 2
EndSplineSet
EndChar

StartChar: OE
Encoding: 338 338 71
Width: 1235
VWidth: 0
GlyphClass: 2
Flags: W
HStem: 0 231<413.069 608 876 1153> 785 232<876 1125> 1524 236<413.627 608 876 1141>
VStem: 110 268<263.123 1495.48> 608 268<233 785 1017 1524>
LayerCount: 2
UndoRedoHistory
Layer: 1
Undoes
EndUndoes
Redoes
EndRedoes
EndUndoRedoHistory
Fore
SplineSet
500 1760 m 2
 1141 1760 l 1
 1141 1529 l 1
 876 1529 l 1
 876 1017 l 1
 1125 1017 l 1
 1125 785 l 1
 876 785 l 1
 876 231 l 1
 1153 231 l 1
 1153 0 l 1
 497 0 l 2
 224 0 110 157 110 494 c 2
 110 1295 l 2
 110 1598 218 1760 500 1760 c 2
608 233 m 1
 608 1524 l 1
 500 1524 l 2
 404 1524 378 1461 378 1305 c 2
 378 491 l 2
 378 298 393 234 497 233 c 1
 608 233 l 1
EndSplineSet
EndChar

StartChar: Oslash
Encoding: 216 216 79
Width: 900
VWidth: 0
GlyphClass: 2
Flags: W
HStem: -20 232<415.242 586.467> 1549 232<417.229 584.271>
VStem: 110 270<246.389 1511.52> 619 269<246.389 1521.64>
LayerCount: 2
UndoRedoHistory
Layer: 1
Undoes
EndUndoes
Redoes
EndRedoes
EndUndoRedoHistory
Fore
SplineSet
94 -166 m 1
 822 1906 l 1
 929 1870 l 1
 193 -206 l 1
 94 -166 l 1
EndSplineSet
Refer: 70 79 N 1 0 0 1 0 0 2
EndChar

StartChar: P
Encoding: 80 80 81
Width: 943
VWidth: 0
GlyphClass: 2
Flags: W
HStem: 0 21G<132 400> 694 221<400 582.501> 1554 206<400 586.131>
VStem: 132 268<0 694 915 1554> 628 268<952.277 1510.97>
LayerCount: 2
UndoRedoHistory
Layer: 1
Undoes
EndUndoes
Redoes
EndRedoes
EndUndoRedoHistory
Fore
SplineSet
132 1760 m 1
 536 1760 l 2
 816 1760 891 1586 896 1264 c 1
 896 1227 l 2
 896 886 821 694 545 694 c 2
 400 694 l 1
 400 0 l 1
 132 0 l 1
 132 1760 l 1
628 1264 m 1
 627 1455 607 1554 494 1554 c 2
 400 1554 l 1
 400 915 l 1
 492 915 l 2
 610 915 628 997 628 1230 c 2
 628 1264 l 1
EndSplineSet
EndChar

StartChar: Q
Encoding: 81 81 82
Width: 999
VWidth: 0
GlyphClass: 2
Flags: W
HStem: -20 232<415.242 586.467> 1549 232<417.229 584.271>
VStem: 110 270<246.389 1511.52> 619 269<246.389 1521.64>
LayerCount: 2
UndoRedoHistory
Layer: 1
Undoes
EndUndoes
Redoes
EndRedoes
EndUndoRedoHistory
Fore
SplineSet
452 -5 m 1
 622 87 l 1
 848 -177 l 1
 716 -292 l 1
 452 -5 l 1
EndSplineSet
Refer: 70 79 N 1 0 0 1 0 0 2
EndChar

StartChar: R
Encoding: 82 82 83
Width: 991
VWidth: 0
GlyphClass: 2
Flags: W
HStem: 0 21G<132 400 632.5 905> 827 212<401 598.875> 1554 206<401 600.192>
VStem: 132 268<0 831 1039 1554> 627 265<0 801.508 1061.8 1524.92>
LayerCount: 2
UndoRedoHistory
Layer: 1
Undoes
EndUndoes
Redoes
EndRedoes
EndUndoRedoHistory
Fore
SplineSet
132 1760 m 1
 575 1760 l 2
 851 1760 892 1594 892 1294 c 0
 892 1087 861 972 732 932 c 1
 854 910 895 787 895 447 c 0
 895 412 895 25 905 0 c 1
 637 0 l 1
 628 18 627 424 627 631 c 0
 627 788 599 825 486 827 c 0
 481 827 406 831 400 831 c 1
 400 0 l 1
 132 0 l 1
 132 1760 l 1
627 1323 m 2
 627 1509 611 1554 492 1554 c 2
 401 1554 l 1
 401 1039 l 1
 508 1039 l 2
 606 1039 627 1089 627 1312 c 2
 627 1323 l 2
EndSplineSet
EndChar

StartChar: S
Encoding: 83 83 87
Width: 875
VWidth: 0
GlyphClass: 2
Flags: W
HStem: -20 229<362.893 536.052> 1553 228<354.105 518.706>
VStem: 74.5275 253.999<242.681 652 1217.97 1529.35> 548.527 247<1188 1523.7> 561.527 257<230.43 620.066>
AnchorPoint: "cedilla" 433 0 basechar 0
LayerCount: 2
UndoRedoHistory
Layer: 1
Undoes
EndUndoes
Redoes
EndRedoes
EndUndoRedoHistory
Fore
SplineSet
72.5275 1351 m 0xe8
 72.5275 1629 162.527 1781 443.527 1781 c 0
 726.527 1781 795.527 1603 795.527 1297 c 2
 795.527 1188 l 1
 548.527 1188 l 1
 548.527 1314 l 2xf0
 548.527 1474 529.527 1553 441.527 1553 c 0
 358.527 1553 324.527 1499 324.527 1378 c 0
 324.527 1267 367.527 1215 453.527 1123 c 2
 598.527 966 l 2
 737.527 816 818.527 661 818.527 463 c 0
 818.527 147 728.527 -20 452.527 -20 c 0
 159.527 -20 74.5275 170 74.5275 495 c 2
 74.5275 652 l 1
 328.527 652 l 1
 328.527 475 l 2
 328.527 285 353.527 209 447.527 209 c 0
 543.527 209 561.527 273 561.527 433 c 0
 561.527 565 506.527 667 394.527 784 c 1
 264.527 918 l 2
 157.527 1029 72.5275 1158 72.5275 1351 c 0xe8
EndSplineSet
EndChar

StartChar: T
Encoding: 84 84 93
Width: 707
VWidth: 0
GlyphClass: 2
Flags: W
HStem: 0 21G<224.082 491.082> 1528 232<18.0822 224.082 491.082 689.082>
VStem: 224.082 267<0 1528>
LayerCount: 2
UndoRedoHistory
Layer: 1
Undoes
EndUndoes
Redoes
EndRedoes
EndUndoRedoHistory
Fore
SplineSet
18.0822 1760 m 1
 689.082 1760 l 1
 689.082 1528 l 1
 491.082 1528 l 1
 491.082 0 l 1
 224.082 0 l 1
 224.082 1528 l 1
 18.0822 1528 l 1
 18.0822 1760 l 1
EndSplineSet
EndChar

StartChar: Thorn
Encoding: 222 222 95
Width: 982
VWidth: 0
GlyphClass: 2
Flags: W
HStem: 0 21G<146 414> 408 222<414 596.501> 1290 207<414 598.805> 1740 20G<146 414>
VStem: 146 268<0 408 630 1290 1497 1760> 642 268<675.494 1246.46>
LayerCount: 2
UndoRedoHistory
Layer: 1
Undoes
EndUndoes
Redoes
EndRedoes
EndUndoRedoHistory
Fore
SplineSet
146 1760 m 1
 414 1760 l 1
 414 1497 l 1
 550 1497 l 2
 832 1497 906 1310 910 981 c 1
 910 953 l 2
 910 612 835 408 559 408 c 2
 414 408 l 1
 414 0 l 1
 146 0 l 1
 146 1760 l 1
642 979 m 2
 642 1177 624 1290 508 1290 c 2
 414 1290 l 1
 414 630 l 1
 506 630 l 2
 624 630 642 723 642 955 c 2
 642 979 l 2
EndSplineSet
EndChar

StartChar: U
Encoding: 85 85 96
Width: 1013
VWidth: 0
GlyphClass: 2
Flags: W
HStem: -20 229<420.39 594.85> 1740 20G<118.919 386.919 626.919 894.919>
VStem: 118.919 268<243.25 1760> 626.919 268<243.25 1760>
AnchorPoint: "hungarumlaut" 491 1760 basechar 0
AnchorPoint: "ogonek" 559 0 basechar 0
LayerCount: 2
UndoRedoHistory
Layer: 1
Undoes
EndUndoes
Redoes
EndRedoes
EndUndoRedoHistory
Fore
SplineSet
626.919 1760 m 1
 894.919 1760 l 1
 894.919 452 l 2
 894.919 132 781.919 -20 507.919 -20 c 0
 233.919 -20 118.919 132 118.919 452 c 2
 118.919 1760 l 1
 386.919 1760 l 1
 386.919 457 l 2
 386.919 308 393.919 209 506.919 209 c 0
 621.919 209 626.919 307 626.919 457 c 2
 626.919 1760 l 1
EndSplineSet
EndChar

StartChar: V
Encoding: 86 86 107
Width: 930
VWidth: 0
GlyphClass: 2
Flags: W
HStem: 0 21G<307.612 644.566> 1740 20G<37.7143 295.607 640.299 892.714>
LayerCount: 2
UndoRedoHistory
Layer: 1
Undoes
EndUndoes
Redoes
EndRedoes
EndUndoRedoHistory
Fore
SplineSet
642.714 1760 m 1
 892.714 1760 l 1
 641.714 0 l 1
 310.714 0 l 1
 37.7143 1760 l 1
 292.714 1760 l 1
 407.714 965 l 1
 478.714 405 l 1
 485.714 405 l 1
 546.714 965 l 1
 642.714 1760 l 1
EndSplineSet
EndChar

StartChar: W
Encoding: 87 87 108
Width: 1360
VWidth: 0
GlyphClass: 2
Flags: W
HStem: 0 21G<258.074 530.286 842.85 1114.82> 1740 20G<45.5172 287.574 575.901 797.149 1071.7 1314.52>
VStem: 45.5172 240<1642.64 1760> 1073.52 241<1635.09 1760>
LayerCount: 2
UndoRedoHistory
Layer: 1
Undoes
EndUndoes
Redoes
EndRedoes
EndUndoRedoHistory
Fore
SplineSet
1073.52 1760 m 1
 1314.52 1760 l 1
 1112.52 0 l 1
 845.517 0 l 1
 689.517 1170 l 1
 527.517 0 l 1
 260.517 0 l 1
 45.5172 1760 l 1
 285.517 1760 l 1
 414.517 506 l 1
 578.517 1760 l 1
 794.517 1760 l 1
 959.517 506 l 1
 1073.52 1760 l 1
EndSplineSet
EndChar

StartChar: X
Encoding: 88 88 113
Width: 897
VWidth: 0
GlyphClass: 2
Flags: W
HStem: 0 21G<41.25 305.61 617.633 856.25> 1740 20G<42.25 274.942 578.858 835.25>
LayerCount: 2
UndoRedoHistory
Layer: 1
Undoes
EndUndoes
Redoes
EndRedoes
EndUndoRedoHistory
Fore
SplineSet
584.25 1760 m 1
 835.25 1760 l 1
 569.25 859 l 1
 856.25 0 l 1
 624.25 0 l 1
 445.25 541 l 1
 300.25 0 l 1
 41.25 0 l 1
 312.25 944 l 1
 42.25 1760 l 1
 268.25 1760 l 1
 443.25 1237 l 1
 584.25 1760 l 1
EndSplineSet
EndChar

StartChar: Y
Encoding: 89 89 114
Width: 878
VWidth: 0
GlyphClass: 2
Flags: W
HStem: 0 21G<312.368 580.368> 1740 20G<17.3684 278.657 601.657 861.368>
VStem: 312.368 268<0 754.367>
LayerCount: 2
UndoRedoHistory
Layer: 1
Undoes
EndUndoes
Redoes
EndRedoes
EndUndoRedoHistory
Fore
SplineSet
606.368 1760 m 1
 861.368 1760 l 1
 580.368 703 l 1
 580.368 0 l 1
 312.368 0 l 1
 312.368 703 l 1
 17.3684 1760 l 1
 273.368 1760 l 1
 447.368 1102 l 1
 451.368 1102 l 1
 606.368 1760 l 1
EndSplineSet
EndChar

StartChar: Z
Encoding: 90 90 119
Width: 748
VWidth: 0
GlyphClass: 2
Flags: W
HStem: 0 231<343.857 700.857> 1529 231<95.8571 427.857>
VStem: 62.8571 646
LayerCount: 2
UndoRedoHistory
Layer: 1
Undoes
EndUndoes
Redoes
EndRedoes
EndUndoRedoHistory
Fore
SplineSet
95.8571 1760 m 1
 708.857 1760 l 1
 708.857 1543 l 1
 343.857 231 l 1
 700.857 231 l 1
 700.857 0 l 1
 62.8571 0 l 1
 62.8571 238 l 1
 427.857 1529 l 1
 95.8571 1529 l 1
 95.8571 1760 l 1
EndSplineSet
EndChar

StartChar: a
Encoding: 97 97 123
Width: 970
VWidth: 0
GlyphClass: 2
Flags: W
HStem: -15 204<273 507.943> 0 21G<589 856> 1304 214<405.688 565.726>
VStem: 101 270<207.478 702.454> 121 262<1036 1284.69> 585 271<0 149 219.016 814 949.187 1291.07>
AnchorPoint: "ogonek" 718 0 basechar 0
LayerCount: 2
UndoRedoHistory
Layer: 1
Undoes
EndUndoes
Redoes
EndRedoes
EndUndoRedoHistory
Fore
SplineSet
585 814 m 1xb4
 426 743 371 699 371 553 c 2
 371 385 l 2
 371 247 396 189 468 189 c 0
 534 189 575 248 585 298 c 1
 585 814 l 1xb4
121 1081 m 2xac
 121 1355 201 1518 495 1518 c 0
 754 1518 856 1372 856 1081 c 2
 856 0 l 1
 589 0 l 1x6c
 589 149 l 1
 564 63 488 -15 376 -15 c 0
 170 -15 103 147 101 394 c 1
 101 490 l 2xb4
 101 810 295 856 585 964 c 1
 585 1095 l 2
 585 1246 575 1304 487 1304 c 0
 400 1304 383 1240 383 1103 c 2
 383 1036 l 1
 121 1036 l 1
 121 1081 l 2xac
EndSplineSet
EndChar

StartChar: acute
Encoding: 180 180 127
Width: 650
VWidth: 0
GlyphClass: 2
Flags: W
HStem: 1716 442
LayerCount: 2
UndoRedoHistory
Layer: 1
Undoes
EndUndoes
Redoes
EndRedoes
EndUndoRedoHistory
Fore
SplineSet
148 1716 m 1
 304 1716 l 1
 496 2158 l 1
 238 2158 l 1
 148 1716 l 1
EndSplineSet
EndChar

StartChar: ae
Encoding: 230 230 129
Width: 1443
VWidth: 0
GlyphClass: 2
Flags: W
HStem: -15 212<403.933 559.835 892.242 1042.83> 726 180<860 1074> 1309 209<418.113 561.406 890.485 1044>
VStem: 107 270<219.211 699.252> 127 262<1036 1284.69> 591 269<227.016 726 954.054 1283.26> 1074 263<218.047 569 906 1288.02>
LayerCount: 2
UndoRedoHistory
Layer: 1
Undoes
EndUndoes
Redoes
EndRedoes
EndUndoRedoHistory
Fore
SplineSet
730 1409 m 1xee
 780 1480 860 1518 977 1518 c 0
 1257 1518 1339 1340 1339 1053 c 1
 1339 1053 1339 752 1337 726 c 1
 860 726 l 1
 860 472 l 2
 860 287 880 196 971 196 c 0
 1073 196 1075 323 1075 464 c 0
 1075 494 1074 566 1074 569 c 1
 1337 569 l 1
 1337 499 l 2
 1337 184 1288 -18 985 -18 c 0
 851 -18 760 41 718 128 c 1
 671 54 563 -15 438 -15 c 0
 219 -15 107 142 107 406 c 2
 107 506 l 1xf6
 112 814 301 860 592 969 c 1
 592 969 593 1038 592 1061 c 0
 591 1205 581 1304 492 1304 c 0
 409 1304 389 1247 389 1109 c 2
 389 1036 l 1
 128 1036 l 1
 127 1042 127 1071 127 1081 c 0
 127 1355 207 1518 501 1518 c 0
 614 1518 686 1481 730 1409 c 1xee
591 306 m 1
 591 803 l 1
 427 731 377 694 377 544 c 2
 377 393 l 2
 377 255 402 197 474 197 c 0
 540 197 581 256 591 306 c 1
1074 1079 m 2
 1074 1229 1060 1309 975 1309 c 0
 868 1309 860 1206 860 1057 c 2
 860 906 l 1
 1074 906 l 1
 1074 1079 l 2
EndSplineSet
EndChar

StartChar: ampersand
Encoding: 38 38 132
Width: 1052
VWidth: 0
GlyphClass: 2
Flags: W
HStem: -20 229<338.104 527.896> 0 21G<744 998> 1600 181<476.735 641.214>
VStem: 73 227<245.837 552.25> 208 243<1246.57 1575.63> 662 185<1279.46 1583.73>
LayerCount: 2
UndoRedoHistory
Layer: 1
Undoes
EndUndoes
Redoes
EndRedoes
EndUndoRedoHistory
Fore
SplineSet
531 1781 m 0xac
 743 1781 847 1656 847 1434 c 0
 847 1247 736 1079 613 922 c 1
 653 818 698 708 742 601 c 1
 794 688 855 782 932 874 c 1
 1041 690 l 1
 958 598 899 481 840 369 c 1
 908 209 967 73 998 0 c 1
 750 0 l 1x6c
 738 29 718 74 693 130 c 1
 619 41 528 -20 394 -20 c 0
 195 -20 73 121 73 378 c 0xb4
 73 583 209 763 351 930 c 1
 269 1142 208 1333 208 1431 c 0
 208 1658 336 1781 531 1781 c 0xac
597 346 m 1
 548 456 494 581 442 706 c 1
 364 602 304 501 300 403 c 0
 296 276 342 209 439 209 c 0xb4
 498 209 545 262 597 346 c 1
530 1144 m 1
 607 1244 662 1341 662 1438 c 0
 662 1553 639 1600 561 1600 c 0
 467 1600 451 1515 451 1441 c 0x2c
 451 1388 482 1280 530 1144 c 1
EndSplineSet
EndChar

StartChar: approxequal
Encoding: 8776 8776 134
Width: 1117
VWidth: 0
GlyphClass: 2
Flags: W
HStem: 326 262<595.607 793.438> 431 255<303.36 544.093> 819 262<595.607 793.438> 924 255<303.36 544.093>
VStem: 827 187<620.191 661.22 1113.19 1154.22>
LayerCount: 2
UndoRedoHistory
Layer: 1
Undoes
EndUndoes
Redoes
EndRedoes
EndUndoRedoHistory
Fore
SplineSet
740 1081 m 1x28
 760 1084 803 1112 827 1193 c 1
 1014 1151 l 1
 993 1069 892 819 771 819 c 0x28
 657 819 478 924 372 924 c 0
 331 924 305 897 277 831 c 1
 105 912 l 1
 156 1081 235 1179 352 1179 c 0x18
 456 1179 676 1081 740 1081 c 1x28
740 588 m 1x88
 760 591 803 619 827 700 c 1
 1014 658 l 1
 993 576 892 326 771 326 c 0x88
 657 326 478 431 372 431 c 0
 331 431 305 404 277 338 c 1
 105 419 l 1
 156 588 235 686 352 686 c 0x48
 456 686 676 588 740 588 c 1x88
EndSplineSet
EndChar

StartChar: asciicircum
Encoding: 94 94 136
Width: 1030
VWidth: 0
GlyphClass: 2
Flags: W
HStem: 1480 20G<349.784 679.216>
LayerCount: 2
UndoRedoHistory
Layer: 1
Undoes
EndUndoes
Redoes
EndRedoes
EndUndoRedoHistory
Fore
SplineSet
355 1500 m 1
 674 1500 l 1
 915 576 l 1
 659 576 l 1
 515 1288 l 1
 371 576 l 1
 114 576 l 1
 355 1500 l 1
EndSplineSet
EndChar

StartChar: asciitilde
Encoding: 126 126 137
Width: 1117
VWidth: 0
GlyphClass: 2
Flags: W
HStem: 810 262<584.016 789.707> 914 255<298.099 542.46>
LayerCount: 2
UndoRedoHistory
Layer: 1
Undoes
EndUndoes
Redoes
EndRedoes
EndUndoRedoHistory
Fore
SplineSet
735 1072 m 1x80
 755 1074 798 1102 823 1183 c 1
 1009 1141 l 1
 988 1060 887 810 766 810 c 0x80
 652 810 473 914 367 914 c 0
 319 914 299 884 272 821 c 1
 100 903 l 1
 151 1072 230 1169 347 1169 c 0x40
 451 1169 671 1072 735 1072 c 1x80
EndSplineSet
EndChar

StartChar: asterisk
Encoding: 42 42 138
Width: 960
VWidth: 0
GlyphClass: 2
Flags: W
LayerCount: 2
UndoRedoHistory
Layer: 1
Undoes
EndUndoes
Redoes
EndRedoes
EndUndoRedoHistory
Fore
SplineSet
386 1673 m 1
 574 1673 l 1
 546 1395 l 1
 774 1568 l 1
 869 1404 l 1
 605 1285 l 1
 869 1158 l 1
 774 995 l 1
 546 1174 l 1
 574 889 l 1
 386 889 l 1
 421 1180 l 1
 190 998 l 1
 95 1162 l 1
 355 1285 l 1
 91 1400 l 1
 186 1564 l 1
 420 1391 l 1
 386 1673 l 1
EndSplineSet
EndChar

StartChar: at
Encoding: 64 64 139
Width: 1502
VWidth: 0
GlyphClass: 2
Flags: W
HStem: 361 170<685.211 826.576> 378 166<1060.5 1175.78> 1609 166<597.606 981.639>
VStem: 110 196<494.473 1226.98> 470 173<572.775 1117.85> 870 168<574.928 1192.57> 1223 169<591.95 1300.41>
CounterMasks: 1 1e
LayerCount: 2
UndoRedoHistory
Layer: 1
Undoes
EndUndoes
Redoes
EndRedoes
EndUndoRedoHistory
Fore
SplineSet
758 531 m 0xbe
 833 531 870 648 870 779 c 2
 870 1180 l 1
 692 1252 643 1085 643 824 c 0
 643 637 675 531 758 531 c 0xbe
110 836 m 0
 110 1416 321 1775 809 1775 c 0
 1197 1775 1392 1459 1392 910 c 0
 1392 591 1295 378 1096 378 c 0x7e
 1015 378 929 455 897 597 c 1
 872 449 831 361 732 361 c 0xbe
 586 361 470 508 470 818 c 0
 470 1116 562 1501 1038 1283 c 1
 1038 759 l 2
 1038 633 1055 544 1111 544 c 0x7e
 1182 544 1223 634 1223 942 c 0
 1223 1286 1141 1609 796 1609 c 0
 444 1609 306 1315 306 833 c 0
 306 230 604 -7 1138 178 c 1
 1165 10 l 1
 556 -207 110 110 110 836 c 0
EndSplineSet
EndChar

StartChar: b
Encoding: 98 98 141
Width: 998
VWidth: 0
GlyphClass: 2
Flags: W
HStem: -15 212<477 716> 0 21G<135 400> 1304 214<464.253 596.562> 1755 20G<135 400>
VStem: 135 265<0 140 226.549 1276.06 1392 1775> 622 266<218.179 1281.21>
LayerCount: 2
UndoRedoHistory
Layer: 1
Undoes
EndUndoes
Redoes
EndRedoes
EndUndoRedoHistory
Fore
SplineSet
622 1073 m 2xbc
 622 1209 612 1304 521 1304 c 0
 438 1304 400 1253 400 1074 c 2
 400 456 l 2
 400 291 418 197 519 197 c 0
 611 197 622 287 622 459 c 2
 622 1073 l 2xbc
400 1392 m 1
 430 1470 515 1517 588 1518 c 0
 825 1522 888 1333 888 1069 c 2
 888 434 l 2
 888 179 824 -15 608 -15 c 0xbc
 519 -15 442 31 400 140 c 1
 400 0 l 1
 135 0 l 1x7c
 135 1775 l 1
 400 1775 l 1
 400 1392 l 1
EndSplineSet
EndChar

StartChar: backslash
Encoding: 92 92 142
Width: 868
VWidth: 0
GlyphClass: 2
Flags: W
HStem: 0 21G<502.33 744> 1740 20G<96 338.659>
VStem: 96 648
LayerCount: 2
UndoRedoHistory
Layer: 1
Undoes
EndUndoes
Redoes
EndRedoes
EndUndoRedoHistory
Fore
SplineSet
96 1760 m 1
 334 1760 l 1
 744 0 l 1
 507 0 l 1
 96 1760 l 1
EndSplineSet
EndChar

StartChar: bar
Encoding: 124 124 143
Width: 537
VWidth: 0
GlyphClass: 2
Flags: W
VStem: 150 243<-84 1863>
LayerCount: 2
UndoRedoHistory
Layer: 1
Undoes
EndUndoes
Redoes
EndRedoes
EndUndoRedoHistory
Fore
SplineSet
150 1863 m 1
 393 1863 l 1
 393 -84 l 1
 150 -84 l 1
 150 1863 l 1
EndSplineSet
EndChar

StartChar: braceleft
Encoding: 123 123 144
Width: 798
VWidth: 0
GlyphClass: 2
Flags: W
HStem: -121 199<558.865 674> 710 240<133 249.854> 1582 199<558.865 674>
VStem: 272 263<97.8316 688.203 971.797 1562.17>
LayerCount: 2
UndoRedoHistory
Layer: 1
Undoes
EndUndoes
Redoes
EndRedoes
EndUndoRedoHistory
Fore
SplineSet
614 1781 m 2
 674 1781 l 1
 674 1582 l 1
 553 1582 535 1554 535 1430 c 2
 535 1184 l 2
 535 932 509 870 376 830 c 1
 509 790 535 728 535 476 c 2
 535 230 l 2
 535 106 553 78 674 78 c 1
 674 -121 l 1
 614 -121 l 2
 367 -121 272 -45 272 217 c 2
 272 492 l 2
 272 661 264 710 133 710 c 1
 133 950 l 1
 264 950 272 999 272 1168 c 2
 272 1443 l 2
 272 1705 367 1781 614 1781 c 2
EndSplineSet
EndChar

StartChar: braceright
Encoding: 125 125 145
Width: 798
VWidth: 0
GlyphClass: 2
Flags: W
HStem: -121 199<133 248.135> 710 240<557.146 674> 1582 199<133 248.135>
VStem: 272 263<97.8316 688.203 971.797 1562.17>
LayerCount: 2
UndoRedoHistory
Layer: 1
Undoes
EndUndoes
Redoes
EndRedoes
EndUndoRedoHistory
Fore
SplineSet
193 1781 m 2
 440 1781 535 1705 535 1443 c 2
 535 1168 l 2
 535 999 543 950 674 950 c 1
 674 710 l 1
 543 710 535 661 535 492 c 2
 535 217 l 2
 535 -45 440 -121 193 -121 c 2
 133 -121 l 1
 133 78 l 1
 254 78 272 106 272 230 c 2
 272 476 l 2
 272 728 298 790 432 830 c 1
 298 870 272 932 272 1184 c 2
 272 1430 l 2
 272 1554 254 1582 133 1582 c 1
 133 1781 l 1
 193 1781 l 2
EndSplineSet
EndChar

StartChar: bracketleft
Encoding: 91 91 146
Width: 764
VWidth: 0
GlyphClass: 2
Flags: W
HStem: 0 209<445 650> 1552 208<445 650>
VStem: 179 471<0 209 1552 1760> 179 266<209 1552>
LayerCount: 2
UndoRedoHistory
Layer: 1
Undoes
EndUndoes
Redoes
EndRedoes
EndUndoRedoHistory
Fore
SplineSet
179 1760 m 1xe0
 650 1760 l 1
 650 1552 l 1xe0
 445 1552 l 1
 445 209 l 1xd0
 650 209 l 1
 650 0 l 1
 179 0 l 1
 179 1760 l 1xe0
EndSplineSet
EndChar

StartChar: bracketright
Encoding: 93 93 147
Width: 764
VWidth: 0
GlyphClass: 2
Flags: W
HStem: 0 209<135 340> 1552 208<135 340>
VStem: 135 471<0 209 1552 1760> 340 266<209 1552>
LayerCount: 2
UndoRedoHistory
Layer: 1
Undoes
EndUndoes
Redoes
EndRedoes
EndUndoRedoHistory
Fore
SplineSet
606 1760 m 1xe0
 606 0 l 1
 135 0 l 1
 135 209 l 1xe0
 340 209 l 1
 340 1552 l 1xd0
 135 1552 l 1
 135 1760 l 1
 606 1760 l 1xe0
EndSplineSet
EndChar

StartChar: breve
Encoding: 728 728 148
Width: 1016
VWidth: 0
GlyphClass: 2
Flags: W
HStem: 1615 145<396.43 617.464>
VStem: 225 150<1782.02 1892> 638 151<1783.03 1892>
LayerCount: 2
UndoRedoHistory
Layer: 1
Undoes
EndUndoes
Redoes
EndRedoes
EndUndoRedoHistory
Fore
SplineSet
638 1892 m 1
 789 1892 l 1
 789 1879 l 2
 789 1704 698 1615 506 1615 c 0
 320 1615 225 1704 225 1877 c 2
 225 1892 l 1
 375 1892 l 1
 375 1782 434 1760 508 1760 c 0
 579 1760 638 1780 638 1892 c 1
EndSplineSet
EndChar

StartChar: brokenbar
Encoding: 166 166 149
Width: 530
VWidth: 0
GlyphClass: 2
Flags: W
HStem: 1740 20G<122 408>
VStem: 122 286<-84 724 931 1760>
LayerCount: 2
UndoRedoHistory
Layer: 1
Undoes
EndUndoes
Redoes
EndRedoes
EndUndoRedoHistory
Fore
SplineSet
122 1760 m 1
 408 1760 l 1
 408 931 l 1
 122 931 l 1
 122 1760 l 1
122 724 m 1
 408 724 l 1
 408 -84 l 1
 122 -84 l 1
 122 724 l 1
EndSplineSet
EndChar

StartChar: bullet
Encoding: 8226 8226 150
Width: 861
VWidth: 0
GlyphClass: 2
Flags: W
HStem: 451 580<271.006 589.311>
VStem: 165 531<564.49 917.51>
LayerCount: 2
UndoRedoHistory
Layer: 1
Undoes
EndUndoes
Redoes
EndRedoes
EndUndoRedoHistory
Fore
SplineSet
165 741 m 0
 165 921 259 1031 430 1031 c 0
 601 1031 696 921 696 741 c 0
 696 561 601 451 430 451 c 0
 259 451 165 561 165 741 c 0
EndSplineSet
EndChar

StartChar: c
Encoding: 99 99 151
Width: 938
VWidth: 0
GlyphClass: 2
Flags: W
HStem: -18 217<408.708 565.307> 1301 217<410.641 567.679>
VStem: 110 267<225.758 1267.33> 591 256<220.556 591 920 1284.43>
AnchorPoint: "cedilla" 435 0 basechar 0
LayerCount: 2
UndoRedoHistory
Layer: 1
Undoes
EndUndoes
Redoes
EndRedoes
EndUndoRedoHistory
Fore
SplineSet
110 986 m 2
 110 1317 181 1518 497 1518 c 0
 756 1518 847 1351 847 1085 c 2
 847 920 l 1
 591 920 l 1
 591 1094 l 2
 591 1224 583 1301 491 1301 c 0
 400 1301 377 1222 377 1090 c 2
 377 414 l 2
 377 278 395 199 487 199 c 0
 577 199 591 283 591 413 c 2
 591 591 l 1
 847 591 l 1
 847 439 l 2
 847 163 759 -18 494 -18 c 0
 186 -18 110 177 110 500 c 2
 110 986 l 2
EndSplineSet
EndChar

StartChar: caron
Encoding: 711 711 153
Width: 970
VWidth: 0
GlyphClass: 2
Flags: W
HStem: 1608 338<334 399 571 636>
VStem: 145 679
LayerCount: 2
UndoRedoHistory
Layer: 1
Undoes
EndUndoes
Redoes
EndRedoes
EndUndoRedoHistory
Fore
SplineSet
571 1946 m 1
 824 1946 l 1
 636 1608 l 1
 334 1608 l 1
 145 1946 l 1
 399 1946 l 1
 485 1709 l 1
 571 1946 l 1
EndSplineSet
EndChar

StartChar: cedilla
Encoding: 184 184 158
Width: 1015
VWidth: 0
GlyphClass: 2
Flags: W
HStem: -638 137<319.298 499.381> -20 20G<423.918 512.128>
VStem: 548 205<-456.025 -264.495>
AnchorPoint: "cedilla" 459 0 mark 0
LayerCount: 2
UndoRedoHistory
Layer: 1
Undoes
EndUndoes
Redoes
EndRedoes
EndUndoRedoHistory
Fore
SplineSet
428 0 m 1
 510 0 l 1
 525 -141 l 1
 676 -193 753 -290 753 -396 c 0
 753 -522 649 -638 466 -638 c 0
 416 -638 366 -630 317 -612 c 1
 317 -501 l 1
 506 -501 548 -434 548 -359 c 0
 548 -269 470 -214 388 -196 c 1
 428 0 l 1
EndSplineSet
EndChar

StartChar: cent
Encoding: 162 162 159
Width: 788
VWidth: 0
GlyphClass: 2
Flags: W
HStem: -251 255<416 529> -18 217<408.708 565.307> 1301 217<410.641 567.679> 1511 255<416 529>
VStem: 110 267<225.758 1267.33> 416 113<-251 4 1511 1766> 591 256<220.556 591 920 1284.43>
CounterMasks: 1 b0
LayerCount: 2
UndoRedoHistory
Layer: 1
Undoes
EndUndoes
Redoes
EndRedoes
EndUndoRedoHistory
Fore
SplineSet
416 1766 m 1x1e
 529 1766 l 1
 529 1509 l 1
 416 1511 l 1
 416 1766 l 1x1e
416 4 m 1x8e
 529 4 l 1
 529 -251 l 1
 416 -251 l 1
 416 4 l 1x8e
EndSplineSet
Refer: 151 99 N 1 0 0 1 0 0 2
EndChar

StartChar: circumflex
Encoding: 710 710 160
Width: 970
VWidth: 0
GlyphClass: 2
Flags: W
HStem: 1608 337<334 399 571 636>
VStem: 145 679
AnchorPoint: "circumflex" 480 1465 mark 0
LayerCount: 2
UndoRedoHistory
Layer: 1
Undoes
EndUndoes
Redoes
EndRedoes
EndUndoRedoHistory
Fore
SplineSet
334 1945 m 1
 636 1945 l 1
 824 1608 l 1
 571 1608 l 1
 485 1844 l 1
 399 1608 l 1
 145 1608 l 1
 334 1945 l 1
EndSplineSet
EndChar

StartChar: colon
Encoding: 58 58 161
Width: 555
VWidth: 0
GlyphClass: 2
Flags: W
HStem: 270 269<136 419> 1038 269<136 419>
VStem: 136 283<270 539 1038 1307>
LayerCount: 2
UndoRedoHistory
Layer: 1
Undoes
EndUndoes
Redoes
EndRedoes
EndUndoRedoHistory
Fore
SplineSet
136 1307 m 1
 419 1307 l 1
 419 1038 l 1
 136 1038 l 1
 136 1307 l 1
136 539 m 1
 419 539 l 1
 419 270 l 1
 136 270 l 1
 136 539 l 1
EndSplineSet
EndChar

StartChar: comma
Encoding: 44 44 162
Width: 488
VWidth: 0
GlyphClass: 2
Flags: W
HStem: 0 268<117 242>
VStem: 117 288<0 268> 172 131<-338 -289.229>
LayerCount: 2
UndoRedoHistory
Layer: 1
Undoes
EndUndoes
Redoes
EndRedoes
EndUndoRedoHistory
Fore
SplineSet
117 268 m 1xc0
 405 268 l 1
 405 9 l 1xc0
 303 -338 l 1
 172 -338 l 1xa0
 242 0 l 1
 117 0 l 1
 117 268 l 1xc0
EndSplineSet
EndChar

StartChar: commaaccentcomb
Encoding: 806 806 163
Width: 528
VWidth: 0
GlyphClass: 2
Flags: W
HStem: -258 263<121 236>
VStem: 121 273<-258 5> 181 121<-562 -513.226>
LayerCount: 2
UndoRedoHistory
Layer: 1
Undoes
EndUndoes
Redoes
EndRedoes
EndUndoRedoHistory
Fore
SplineSet
121 5 m 1xc0
 394 5 l 1
 394 -249 l 1xc0
 302 -562 l 1
 181 -562 l 1xa0
 236 -258 l 1
 121 -258 l 1
 121 5 l 1xc0
EndSplineSet
EndChar

StartChar: copyright
Encoding: 169 169 164
Width: 1466
VWidth: 0
GlyphClass: 2
Flags: W
HStem: 204 129<533.563 932.437> 423 168<697.245 777.75> 1129 175<695.938 778.534> 1389 129<533.563 932.437>
VStem: 76 159<645.162 1076.84> 497 195<591.026 1127.49> 782 169<596.714 805 951 1128.33> 1231 159<645.162 1076.84>
CounterMasks: 1 0f
LayerCount: 2
UndoRedoHistory
Layer: 1
Undoes
EndUndoes
Redoes
EndRedoes
EndUndoRedoHistory
Fore
SplineSet
497 1048 m 2
 497 1216 571 1304 736 1304 c 0
 870 1304 947 1238 947 1104 c 2
 947 951 l 1
 782 951 l 1
 782 1052 l 2
 782 1103 767 1129 736 1129 c 0
 699 1129 692 1103 692 1065 c 2
 692 656 l 2
 692 626 708 591 736 591 c 0
 767 591 782 613 782 656 c 2
 782 805 l 1
 951 805 l 1
 951 642 l 2
 951 496 894 423 732 423 c 0
 593 423 497 506 497 647 c 2
 497 1048 l 2
76 861 m 0
 76 1234 360 1518 733 1518 c 0
 1106 1518 1390 1234 1390 861 c 0
 1390 488 1106 204 733 204 c 0
 360 204 76 488 76 861 c 0
733 1389 m 0
 444 1389 235 1152 235 861 c 0
 235 570 444 333 733 333 c 0
 1022 333 1231 570 1231 861 c 0
 1231 1152 1022 1389 733 1389 c 0
EndSplineSet
EndChar

StartChar: currency
Encoding: 164 164 165
Width: 1159
VWidth: 0
GlyphClass: 2
Flags: W
HStem: 545 196<449.36 708.452> 1186 199<450.135 710.209>
VStem: 163 208<822.25 1105.46> 788 210<823.533 1108.78>
LayerCount: 2
UndoRedoHistory
Layer: 1
Undoes
EndUndoes
Redoes
EndRedoes
EndUndoRedoHistory
Fore
SplineSet
797 1331 m 1
 884 1418 l 1
 1034 1269 l 1
 944 1179 l 1
 980 1114 998 1043 998 964 c 0
 998 885 980 813 944 748 c 1
 1034 658 l 1
 884 509 l 1
 795 597 l 1
 733 562 661 545 579 545 c 0
 496 545 424 563 363 598 c 1
 274 509 l 1
 125 659 l 1
 216 750 l 1
 181 815 163 887 163 964 c 0
 163 1042 180 1113 215 1178 c 1
 125 1268 l 1
 274 1418 l 1
 361 1330 l 1
 426 1367 498 1385 579 1385 c 0
 659 1385 732 1367 797 1331 c 1
788 966 m 0
 788 1092 708 1186 579 1186 c 0
 453 1186 371 1087 371 964 c 0
 371 840 452 741 579 741 c 0
 706 741 788 842 788 966 c 0
EndSplineSet
EndChar

StartChar: d
Encoding: 100 100 166
Width: 998
VWidth: 0
GlyphClass: 2
Flags: W
HStem: -15 211<264 523.769> 0 21G<601 866> 1303 215<298.5 541.263> 1755 20G<601 866>
VStem: 110 267<230.81 1277.57> 601 265<0 139 223.662 1276.74 1407 1775>
LayerCount: 2
UndoRedoHistory
Layer: 1
Undoes
EndUndoes
Redoes
EndRedoes
EndUndoRedoHistory
Fore
SplineSet
601 1775 m 1xbc
 866 1775 l 1
 866 0 l 1
 601 0 l 1x7c
 601 139 l 1
 561 37 489 -15 386 -15 c 0
 142 -15 110 201 110 479 c 2
 110 1090 l 2
 110 1331 190 1518 407 1518 c 0
 492 1518 563 1473 601 1407 c 1
 601 1775 l 1xbc
602 1063 m 2
 602 1209 583 1303 488 1303 c 0
 397 1303 377 1215 377 1060 c 2
 377 443 l 2
 377 288 400 196 484 196 c 0xbc
 580 196 602 280 602 463 c 2
 602 1063 l 2
EndSplineSet
EndChar

StartChar: dagger
Encoding: 8224 8224 167
Width: 909
VWidth: 0
GlyphClass: 2
Flags: W
HStem: 0 21G<321 591> 965 217<91 321 591 818>
VStem: 321 270<0 965 1182 1592>
LayerCount: 2
UndoRedoHistory
Layer: 1
Undoes
EndUndoes
Redoes
EndRedoes
EndUndoRedoHistory
Fore
SplineSet
321 1592 m 1
 591 1592 l 1
 591 1182 l 1
 818 1182 l 1
 818 965 l 1
 591 965 l 1
 591 0 l 1
 321 0 l 1
 321 965 l 1
 91 965 l 1
 91 1182 l 1
 321 1182 l 1
 321 1592 l 1
EndSplineSet
EndChar

StartChar: daggerdbl
Encoding: 8225 8225 168
Width: 909
VWidth: 0
GlyphClass: 2
Flags: W
HStem: 0 21G<321 591> 446.8 217<91 321 591 818> 965 217<91 321 591 818>
VStem: 321 270<0 446.8 663.8 965 1182 1592>
LayerCount: 2
UndoRedoHistory
Layer: 1
Undoes
EndUndoes
Redoes
EndRedoes
EndUndoRedoHistory
Fore
SplineSet
321 1592 m 1
 591 1592 l 1
 591 1182 l 1
 818 1182 l 1
 818 965 l 1
 591 965 l 1
 591 663.8 l 1
 818 663.8 l 1
 818 446.8 l 1
 591 446.8 l 1
 591 0 l 1
 321 0 l 1
 321 446.8 l 1
 91 446.8 l 1
 91 663.8 l 1
 321 663.8 l 1
 321 965 l 1
 91 965 l 1
 91 1182 l 1
 321 1182 l 1
 321 1592 l 1
EndSplineSet
EndChar

StartChar: dblgravecmb
Encoding: 783 783 169
Width: 825
VWidth: 0
GlyphClass: 2
Flags: W
HStem: 1644 465
LayerCount: 2
UndoRedoHistory
Layer: 1
Undoes
EndUndoes
Redoes
EndRedoes
EndUndoRedoHistory
Fore
SplineSet
3 2006 m 1
 194 2109 l 1
 400 1697 l 1
 277 1644 l 1
 3 2006 l 1
368 2006 m 1
 555 2109 l 1
 724 1697 l 1
 601 1644 l 1
 368 2006 l 1
EndSplineSet
EndChar

StartChar: degree
Encoding: 176 176 172
Width: 915
VWidth: 0
GlyphClass: 2
Flags: W
HStem: 931 181<359.184 560.254> 1426 181<359.184 560.254>
VStem: 104 212<1150.49 1387.32> 600 211<1150.68 1387.32>
LayerCount: 2
UndoRedoHistory
Layer: 1
Undoes
EndUndoes
Redoes
EndRedoes
EndUndoRedoHistory
Fore
SplineSet
457 931 m 0
 243 931 104 1057 104 1269 c 0
 104 1480 243 1607 457 1607 c 0
 671 1607 811 1480 811 1269 c 0
 811 1058 671 931 457 931 c 0
458 1112 m 0
 547 1112 600 1182 600 1269 c 0
 600 1356 547 1426 458 1426 c 0
 369 1426 316 1356 316 1269 c 0
 316 1182 369 1112 458 1112 c 0
EndSplineSet
EndChar

StartChar: dieresis
Encoding: 168 168 173
Width: 976
VWidth: 0
GlyphClass: 2
Flags: W
HStem: 903 226<105 387 589 871>
VStem: 105 282<903 1129> 589 282<903 1129>
LayerCount: 2
UndoRedoHistory
Layer: 1
Undoes
EndUndoes
Redoes
EndRedoes
EndUndoRedoHistory
Fore
SplineSet
589 1129 m 1
 871 1129 l 1
 871 903 l 1
 589 903 l 1
 589 1129 l 1
105 1129 m 1
 387 1129 l 1
 387 903 l 1
 105 903 l 1
 105 1129 l 1
EndSplineSet
EndChar

StartChar: divide
Encoding: 247 247 174
Width: 804
VWidth: 0
GlyphClass: 2
Flags: W
HStem: 237 298<253 551> 638 232<94 710> 976 298<253 551>
VStem: 253 298<237 535 976 1274>
LayerCount: 2
UndoRedoHistory
Layer: 1
Undoes
EndUndoes
Redoes
EndRedoes
EndUndoRedoHistory
Fore
SplineSet
94 870 m 1
 710 870 l 1
 710 638 l 1
 94 638 l 1
 94 870 l 1
253 535 m 1
 551 535 l 1
 551 237 l 1
 253 237 l 1
 253 535 l 1
253 1274 m 1
 551 1274 l 1
 551 976 l 1
 253 976 l 1
 253 1274 l 1
EndSplineSet
EndChar

StartChar: dollar
Encoding: 36 36 175
Width: 902
VWidth: 0
GlyphClass: 2
Flags: W
HStem: -220 273<405 549> 3 216<364.008 518.354> 1323 217<350.655 507.923> 1504 256<396 540>
VStem: 84.7101 249<242.625 540 1039.69 1309.67> 405 144<-220 53 1504 1760> 535.71 237<1023 1296.96> 537.71 261<236.926 539.415>
CounterMasks: 2 b0 0b
LayerCount: 2
UndoRedoHistory
Layer: 1
Undoes
EndUndoes
Redoes
EndRedoes
EndUndoRedoHistory
Fore
SplineSet
405 53 m 1x8c
 549 53 l 1
 549 -220 l 1
 405 -220 l 1
 405 53 l 1x8c
396 1760 m 1x18
 540 1760 l 1
 540 1504 l 1
 396 1504 l 1
 396 1760 l 1x18
EndSplineSet
Refer: 306 115 N 1 0 0 1 0 22 2
EndChar

StartChar: dotaccent
Encoding: 729 729 176
Width: 572
VWidth: 0
GlyphClass: 2
Flags: W
HStem: 896 226<153 424>
VStem: 153 271<896 1122>
LayerCount: 2
UndoRedoHistory
Layer: 1
Undoes
EndUndoes
Redoes
EndRedoes
EndUndoRedoHistory
Fore
SplineSet
153 1122 m 1
 424 1122 l 1
 424 896 l 1
 153 896 l 1
 153 1122 l 1
EndSplineSet
EndChar

StartChar: dotlessi
Encoding: 305 305 177
Width: 537
VWidth: 0
GlyphClass: 2
Flags: W
HStem: 0 21G<136 401> 1480 20G<136 401>
VStem: 136 265<0 1500>
LayerCount: 2
UndoRedoHistory
Layer: 1
Undoes
EndUndoes
Redoes
EndRedoes
EndUndoRedoHistory
Fore
SplineSet
136 1500 m 1
 401 1500 l 1
 401 0 l 1
 136 0 l 1
 136 1500 l 1
EndSplineSet
EndChar

StartChar: e
Encoding: 101 101 178
Width: 945
VWidth: 0
GlyphClass: 2
Flags: W
HStem: -18 214<409.034 564.248> 732 155<377 590> 1309 209<407.31 559.993>
VStem: 110 267<217.565 732 887 1278.84> 590 264<217.978 569 887 1288.02>
AnchorPoint: "ogonek" 538 0 basechar 0
LayerCount: 2
UndoRedoHistory
Layer: 1
Undoes
EndUndoes
Redoes
EndRedoes
EndUndoRedoHistory
Fore
SplineSet
110 1058 m 2
 110 1338 218 1518 493 1518 c 0
 773 1518 854 1340 854 1053 c 2
 854 732 l 1
 377 732 l 1
 377 437 l 2
 377 291 385 196 487 196 c 0
 589 196 590 296 590 437 c 2
 590 569 l 1
 852 569 l 1
 852 489 l 2
 852 167 793 -18 481 -18 c 0
 180 -18 110 183 110 499 c 2
 110 1058 l 2
590 1079 m 2
 590 1229 576 1309 491 1309 c 0
 385 1309 376 1208 376 1072 c 2
 376 887 l 1
 590 887 l 1
 590 1079 l 2
EndSplineSet
EndChar

StartChar: eight
Encoding: 56 56 186
Width: 951
VWidth: 0
GlyphClass: 2
Flags: W
HStem: -21 229<387.976 562.337> 856 177<408.042 549.786> 1573 208<395.977 563.106>
VStem: 100 268<231.281 820.587 1084.31 1551.28> 590 268<233.812 819.64 1086.95 1552.79>
CounterMasks: 1 e0
LayerCount: 2
UndoRedoHistory
Layer: 1
Undoes
EndUndoes
Redoes
EndRedoes
EndUndoRedoHistory
Fore
SplineSet
100 1341 m 0
 100 1648 212 1781 479 1781 c 0
 751 1781 856 1654 856 1341 c 0
 856 1169 816 1030 716 961 c 1
 805 896 858 732 858 557 c 2
 858 436 l 1
 855 126 736 -21 479 -21 c 0
 223 -21 97 125 93 431 c 0
 92 438 92 550 92 557 c 0
 92 735 147 896 241 961 c 1
 142 1031 100 1171 100 1341 c 0
590 586 m 2
 590 760 556 856 480 856 c 0
 408 856 360 764 360 585 c 2
 360 438 l 1
 361 277 377 208 480 208 c 0
 580 208 590 280 590 442 c 2
 590 586 l 2
589 1317 m 0
 589 1542 559 1573 478 1573 c 0
 399 1573 368 1532 368 1315 c 0
 368 1087 407 1033 478 1033 c 0
 547 1033 589 1088 589 1317 c 0
EndSplineSet
EndChar

StartChar: emdash
Encoding: 8212 8212 188
Width: 1153
VWidth: 0
GlyphClass: 2
Flags: W
HStem: 509 232<60 1092>
LayerCount: 2
UndoRedoHistory
Layer: 1
Undoes
EndUndoes
Redoes
EndRedoes
EndUndoRedoHistory
Fore
SplineSet
60 741 m 1
 1092 741 l 1
 1092 509 l 1
 60 509 l 1
 60 741 l 1
EndSplineSet
EndChar

StartChar: endash
Encoding: 8211 8211 189
Width: 756
VWidth: 0
GlyphClass: 2
Flags: W
HStem: 509 232<120 636>
VStem: 120 516<509 741>
LayerCount: 2
UndoRedoHistory
Layer: 1
Undoes
EndUndoes
Redoes
EndRedoes
EndUndoRedoHistory
Fore
SplineSet
120 741 m 1
 636 741 l 1
 636 509 l 1
 120 509 l 1
 120 741 l 1
EndSplineSet
EndChar

StartChar: equal
Encoding: 61 61 191
Width: 722
VWidth: 0
GlyphClass: 2
Flags: W
HStem: 549 189<104 618> 892 184<104 618>
VStem: 104 514<549 738 892 1076>
LayerCount: 2
UndoRedoHistory
Layer: 1
Undoes
EndUndoes
Redoes
EndRedoes
EndUndoRedoHistory
Fore
SplineSet
104 738 m 1
 618 738 l 1
 618 549 l 1
 104 549 l 1
 104 738 l 1
104 1076 m 1
 618 1076 l 1
 618 892 l 1
 104 892 l 1
 104 1076 l 1
EndSplineSet
EndChar

StartChar: eth
Encoding: 240 240 192
Width: 1013
VWidth: 0
GlyphClass: 2
Flags: W
HStem: -21 233<395.413 578.677> 873 225<395.916 590.775> 1761 20G<387.854 458>
VStem: 95 268<241.547 837.695> 615 268<244.115 846.734 1042 1277.27>
LayerCount: 2
UndoRedoHistory
Layer: 1
Undoes
EndUndoes
Redoes
EndRedoes
EndUndoRedoHistory
Fore
SplineSet
269 1630 m 1
 406 1781 l 1
 510 1765 610 1715 687 1625 c 1
 886 1735 l 1
 952 1598 l 1
 773 1500 l 1
 838 1384 883 1022 883 857 c 2
 883 527 l 2
 883 174 817 -21 491 -21 c 0
 188 -21 95 152 95 483 c 2
 95 586 l 2
 95 935 191 1103 441 1098 c 0
 518 1097 569 1076 605 1042 c 1
 605 1085 586 1307 551 1378 c 1
 342 1262 l 1
 277 1399 l 1
 466 1505 l 1
 410 1569 335 1607 269 1630 c 1
615 776 m 1
 607 831 558 873 482 873 c 0
 389 873 363 801 363 613 c 2
 363 434 l 2
 363 264 393 212 489 212 c 0
 588 212 615 285 615 456 c 2
 615 776 l 1
EndSplineSet
EndChar

StartChar: exclam
Encoding: 33 33 193
Width: 514
VWidth: 0
GlyphClass: 2
Flags: W
HStem: 0 256<126 386> 1740 20G<115 399>
VStem: 126 260<0 256> 204 110<423 638.362>
LayerCount: 2
UndoRedoHistory
Layer: 1
Undoes
EndUndoes
Redoes
EndRedoes
EndUndoRedoHistory
Fore
SplineSet
115 1760 m 1xd0
 399 1760 l 1
 314 423 l 1
 204 423 l 1
 115 1760 l 1xd0
126 256 m 1xe0
 386 256 l 1
 386 0 l 1
 126 0 l 1
 126 256 l 1xe0
EndSplineSet
EndChar

StartChar: f
Encoding: 102 102 195
Width: 660
VWidth: 0
GlyphClass: 2
Flags: W
HStem: 0 21G<182 447> 1250 191<66 182 447 599> 1597 187<353.5 598.091>
VStem: 182 265<0 1250 1441 1585.59>
LayerCount: 2
UndoRedoHistory
Layer: 1
Undoes
EndUndoes
Redoes
EndRedoes
EndUndoRedoHistory
Fore
SplineSet
183 1519 m 2
 183 1687 273 1784 434 1784 c 0
 516 1784 583 1766 599 1760 c 1
 599 1593 l 1
 577 1596 557 1597 539 1597 c 0
 471 1597 447 1569 447 1511 c 2
 447 1441 l 1
 599 1441 l 1
 599 1250 l 1
 447 1250 l 1
 447 0 l 1
 182 0 l 1
 182 1250 l 1
 66 1250 l 1
 66 1441 l 1
 183 1441 l 1
 183 1519 l 2
EndSplineSet
EndChar

StartChar: five
Encoding: 53 53 196
Width: 951
VWidth: 0
GlyphClass: 2
Flags: W
HStem: -20 229<393.019 546.837> 1023 223<413.472 663> 1520 240<380 784>
VStem: 133 247<218.635 564 862 1009.81 1163 1520> 571 260<230.984 1001.81>
CounterMasks: 1 e0
LayerCount: 2
UndoRedoHistory
Layer: 1
Undoes
EndUndoes
Redoes
EndRedoes
EndUndoRedoHistory
Fore
SplineSet
133 1760 m 1
 784 1760 l 1
 784 1520 l 1
 380 1520 l 1
 380 1163 l 1
 405 1213 480 1246 557 1246 c 0
 769 1246 831 1064 831 668 c 0
 831 199 807 -20 471 -20 c 0
 222 -20 122 122 122 343 c 2
 122 564 l 1
 373 564 l 1
 373 371 l 2
 373 279 386 209 471 209 c 0
 547 209 571 266 571 382 c 2
 571 832 l 2
 571 947 556 1023 473 1023 c 0
 406 1023 369 968 369 852 c 1
 133 862 l 1
 133 1760 l 1
EndSplineSet
EndChar

StartChar: florin
Encoding: 402 402 197
Width: 767
VWidth: 0
GlyphClass: 2
Flags: W
HStem: -17 199<116.688 366> 1056 202<107 254 510 656> 1587 196<396 649.961>
VStem: 254 256<192.454 1056 1258 1582.68>
LayerCount: 2
UndoRedoHistory
Layer: 1
Undoes
EndUndoes
Redoes
EndRedoes
EndUndoRedoHistory
Fore
SplineSet
254 1539 m 2
 254 1702 323 1783 469 1783 c 0
 535 1783 596 1773 652 1752 c 1
 652 1574 l 1
 621 1582 596 1587 578 1587 c 0
 523 1587 510 1553 510 1484 c 2
 510 1258 l 1
 656 1258 l 1
 656 1056 l 1
 510 1056 l 1
 510 221 l 2
 510 64 442 -17 290 -17 c 0
 226 -17 168 -9 115 8 c 1
 115 186 l 1
 134 184 150 182 163 182 c 0
 246 182 254 215 254 305 c 2
 254 1056 l 1
 107 1056 l 1
 107 1258 l 1
 254 1258 l 1
 254 1539 l 2
EndSplineSet
EndChar

StartChar: four
Encoding: 52 52 198
Width: 951
VWidth: 0
GlyphClass: 2
Flags: W
HStem: 0 21G<524 763> 310 216<297 524 763 899> 1740 20G<470.823 763>
VStem: 524 239<0 310 526 1395>
LayerCount: 2
UndoRedoHistory
Layer: 1
Undoes
EndUndoes
Redoes
EndRedoes
EndUndoRedoHistory
Fore
SplineSet
477 1760 m 1
 763 1760 l 1
 763 526 l 1
 899 526 l 1
 899 310 l 1
 763 310 l 1
 763 0 l 1
 524 0 l 1
 524 310 l 1
 90 310 l 1
 90 507 l 1
 477 1760 l 1
524 526 m 1
 524 1395 l 1
 297 526 l 1
 524 526 l 1
EndSplineSet
EndChar

StartChar: fraction
Encoding: 8260 8260 199
Width: 829
VWidth: 0
GlyphClass: 2
Flags: W
HStem: 0 21G<57 281.32> 1747 20G<520.692 746>
LayerCount: 2
UndoRedoHistory
Layer: 1
Undoes
EndUndoes
Redoes
EndRedoes
EndUndoRedoHistory
Fore
SplineSet
526 1767 m 1
 746 1767 l 1
 276 0 l 1
 57 0 l 1
 526 1767 l 1
EndSplineSet
EndChar

StartChar: g
Encoding: 103 103 200
Width: 990
VWidth: 0
GlyphClass: 2
Flags: W
HStem: -225 198<252.311 547.854> 153 201<284.5 542.194> 1304 214<406.521 535.623> 1480 20G<600 865>
VStem: 114 267<382.444 1276.36> 600 265<22.7883 284 376.392 1275.41 1367 1500>
LayerCount: 2
UndoRedoHistory
Layer: 1
Undoes
EndUndoes
Redoes
EndRedoes
EndUndoRedoHistory
Fore
SplineSet
114 1065 m 2xdc
 114 1326 181 1520 402 1518 c 0xec
 505 1518 573 1464 600 1367 c 1
 600 1500 l 1
 865 1500 l 1
 865 185 l 2
 865 -53 768 -220 469 -225 c 0
 303 -228 195 -195 100 -118 c 1
 193 49 l 1
 264 4 346 -29 444 -27 c 1
 545 -26 600 49 600 165 c 2
 600 284 l 1
 565 184 492 153 391 153 c 0
 178 153 114 335 114 582 c 2
 114 1065 l 2xdc
600 1087 m 2
 600 1219 573 1304 489 1304 c 0
 392 1304 381 1213 381 1088 c 2
 381 594 l 2
 381 446 399 354 496 354 c 0
 567 354 600 408 600 596 c 2
 600 1087 l 2
EndSplineSet
EndChar

StartChar: germandbls
Encoding: 223 223 205
Width: 1032
VWidth: 0
GlyphClass: 2
Flags: W
HStem: 0 212<489 659.056> 832 200<498 613.515> 1562 219<420.643 617.122>
VStem: 135 265<0 1540.83> 635 261<1056.47 1541.39> 695 261<253.894 793.875>
LayerCount: 2
UndoRedoHistory
Layer: 1
Undoes
EndUndoes
Redoes
EndRedoes
EndUndoRedoHistory
Fore
SplineSet
135 1417 m 2xf8
 135 1660 228 1781 511 1781 c 0
 774 1781 896 1688 896 1417 c 2
 896 1220 l 2xf8
 896 1066 855 983 737 945 c 1
 907 905 956 781 956 553 c 2
 956 476 l 2
 956 177 893 0 593 0 c 2
 489 0 l 1
 489 212 l 1
 649 212 695 246 695 395 c 2
 695 656 l 2xf4
 695 789 648 832 498 832 c 1
 498 1032 l 1
 604 1032 635 1076 635 1170 c 2
 635 1438 l 2
 635 1530 604 1562 517 1562 c 0
 439 1562 400 1530 400 1438 c 2
 400 0 l 1
 135 0 l 1
 135 1417 l 2xf8
EndSplineSet
EndChar

StartChar: grave
Encoding: 96 96 206
Width: 650
VWidth: 0
GlyphClass: 2
Flags: W
HStem: 881 413
LayerCount: 2
UndoRedoHistory
Layer: 1
Undoes
EndUndoes
Redoes
EndRedoes
EndUndoRedoHistory
Fore
SplineSet
334 881 m 1
 490 881 l 1
 396 1294 l 1
 131 1294 l 1
 334 881 l 1
EndSplineSet
EndChar

StartChar: greater
Encoding: 62 62 207
Width: 730
VWidth: 0
GlyphClass: 2
Flags: W
VStem: 90 574
LayerCount: 2
UndoRedoHistory
Layer: 1
Undoes
EndUndoes
Redoes
EndRedoes
EndUndoRedoHistory
Fore
SplineSet
90 992 m 1
 90 1264 l 1
 664 898 l 1
 664 605 l 1
 90 238 l 1
 90 513 l 1
 486 749 l 1
 90 992 l 1
EndSplineSet
EndChar

StartChar: greaterequal
Encoding: 8805 8805 208
Width: 781
VWidth: 0
GlyphClass: 2
Flags: W
HStem: 0 179<118 649>
VStem: 107 574
LayerCount: 2
UndoRedoHistory
Layer: 1
Undoes
EndUndoes
Redoes
EndRedoes
EndUndoRedoHistory
Fore
SplineSet
107 1037 m 1
 107 1312 l 1
 681 947 l 1
 681 655 l 1
 107 286 l 1
 107 558 l 1
 503 801 l 1
 107 1037 l 1
118 179 m 1
 649 179 l 1
 649 0 l 1
 118 0 l 1
 118 179 l 1
EndSplineSet
EndChar

StartChar: guillemotleft
Encoding: 171 171 209
Width: 1304
VWidth: 0
GlyphClass: 2
Flags: W
LayerCount: 2
UndoRedoHistory
Layer: 1
Undoes
EndUndoes
Redoes
EndRedoes
EndUndoRedoHistory
Fore
SplineSet
642 887 m 1
 1133 1158 l 1
 1133 890 l 1
 821 749 l 1
 1133 599 l 1
 1133 327 l 1
 642 612 l 1
 642 887 l 1
88 887 m 1
 579 1158 l 1
 579 890 l 1
 267 749 l 1
 579 599 l 1
 579 327 l 1
 88 612 l 1
 88 887 l 1
EndSplineSet
EndChar

StartChar: guillemotright
Encoding: 187 187 210
Width: 1304
VWidth: 0
GlyphClass: 2
Flags: W
LayerCount: 2
UndoRedoHistory
Layer: 1
Undoes
EndUndoes
Redoes
EndRedoes
EndUndoRedoHistory
Fore
SplineSet
704 890 m 1
 704 1158 l 1
 1195 887 l 1
 1195 612 l 1
 704 327 l 1
 704 599 l 1
 1016 749 l 1
 704 890 l 1
151 890 m 1
 151 1158 l 1
 641 887 l 1
 641 612 l 1
 151 327 l 1
 151 599 l 1
 463 749 l 1
 151 890 l 1
EndSplineSet
EndChar

StartChar: guilsinglleft
Encoding: 8249 8249 211
Width: 606
VWidth: 0
GlyphClass: 2
Flags: W
VStem: 57 491
LayerCount: 2
UndoRedoHistory
Layer: 1
Undoes
EndUndoes
Redoes
EndRedoes
EndUndoRedoHistory
Fore
SplineSet
57 887 m 1
 548 1158 l 1
 548 890 l 1
 236 749 l 1
 548 599 l 1
 548 327 l 1
 57 612 l 1
 57 887 l 1
EndSplineSet
EndChar

StartChar: guilsinglright
Encoding: 8250 8250 212
Width: 727
VWidth: 0
GlyphClass: 2
Flags: W
VStem: 139 491
LayerCount: 2
UndoRedoHistory
Layer: 1
Undoes
EndUndoes
Redoes
EndRedoes
EndUndoRedoHistory
Fore
SplineSet
139 890 m 1
 139 1158 l 1
 630 887 l 1
 630 612 l 1
 139 327 l 1
 139 599 l 1
 451 749 l 1
 139 890 l 1
EndSplineSet
EndChar

StartChar: h
Encoding: 104 104 213
Width: 1020
VWidth: 0
GlyphClass: 2
Flags: W
HStem: 0 21G<135 400 633 897> 1301 217<496.63 720> 1755 20G<135 400>
VStem: 135 265<0 1264.19 1328 1775> 633 264<0 1275.86>
LayerCount: 2
UndoRedoHistory
Layer: 1
Undoes
EndUndoes
Redoes
EndRedoes
EndUndoRedoHistory
Fore
SplineSet
135 1775 m 1
 400 1775 l 1
 400 1328 l 1
 426 1430 510 1518 633 1518 c 0
 807 1518 897 1399 897 1181 c 2
 897 0 l 1
 633 0 l 1
 633 1156 l 2
 633 1252 595 1301 527 1301 c 0
 444 1301 400 1227 400 1115 c 2
 400 0 l 1
 135 0 l 1
 135 1775 l 1
EndSplineSet
EndChar

StartChar: hbar
Encoding: 295 295 214
Width: 1016
VWidth: 0
GlyphClass: 2
Flags: W
HStem: 0 21<135 400 633 897> 1301 217<496.63 720> 1593 109<0 663> 1755 20<135 400>
VStem: 135 265<0 1264.19 1328 1775> 633 264<0 1275.86>
LayerCount: 2
UndoRedoHistory
Layer: 1
Undoes
EndUndoes
Redoes
EndRedoes
EndUndoRedoHistory
Fore
SplineSet
0 1702 m 1
 663 1702 l 1
 663 1593 l 1
 0 1593 l 1
 0 1702 l 1
EndSplineSet
Refer: 213 104 N 1 0 0 1 0 0 2
EndChar

StartChar: hungarumlaut
Encoding: 733 733 216
Width: 1300
VWidth: 0
GlyphClass: 2
Flags: W
HStem: 948 493
AnchorPoint: "hungarumlaut" 557 820 mark 0
LayerCount: 2
UndoRedoHistory
Layer: 1
Undoes
EndUndoes
Redoes
EndRedoes
EndUndoRedoHistory
Fore
SplineSet
673 1000 m 1
 880 1441 l 1
 1091 1340 l 1
 784 948 l 1
 673 1000 l 1
336 1000 m 1
 487 1441 l 1
 694 1344 l 1
 449 953 l 1
 336 1000 l 1
EndSplineSet
EndChar

StartChar: hyphen
Encoding: 45 45 217
Width: 696
VWidth: 0
GlyphClass: 2
Flags: W
HStem: 661 175<89 567>
VStem: 89 478<661 836>
LayerCount: 2
UndoRedoHistory
Layer: 1
Undoes
EndUndoes
Redoes
EndRedoes
EndUndoRedoHistory
Fore
SplineSet
89 836 m 1
 567 836 l 1
 567 661 l 1
 89 661 l 1
 89 836 l 1
EndSplineSet
EndChar

StartChar: i
Encoding: 105 105 218
Width: 530
VWidth: 0
GlyphClass: 2
Flags: W
HStem: 0 21G<135 400> 1480 20G<135 400> 1638 230<132 399>
VStem: 135 265<0 1500 1638 1868>
AnchorPoint: "ogonek" 276 0 basechar 0
LayerCount: 2
UndoRedoHistory
Layer: 1
Undoes
EndUndoes
Redoes
EndRedoes
EndUndoRedoHistory
Fore
SplineSet
135 1500 m 1
 400 1500 l 1
 400 0 l 1
 135 0 l 1
 135 1500 l 1
132 1868 m 1
 399 1868 l 1
 399 1638 l 1
 132 1638 l 1
 132 1868 l 1
EndSplineSet
EndChar

StartChar: infinity
Encoding: 8734 8734 226
Width: 1300
VWidth: 0
GlyphClass: 2
Flags: W
HStem: 452 217<351.118 527.294 732.872 939.94> 810 218<350.998 521.902 741.054 944.042>
VStem: 108 236<677.546 801.575> 948 234<676.89 802.755>
LayerCount: 2
UndoRedoHistory
Layer: 1
Undoes
EndUndoes
Redoes
EndRedoes
EndUndoRedoHistory
Fore
SplineSet
639 885 m 1
 723 989 814 1041 912 1041 c 0
 1088 1041 1182 927 1182 744 c 0
 1182 559 1090 439 912 439 c 0
 787 439 696 512 639 585 c 1
 583 522 482 452 370 452 c 0
 196 452 108 564 108 744 c 0
 108 920 200 1028 370 1028 c 0
 465 1028 554 980 639 885 c 1
577 740 m 1
 529 787 481 810 433 810 c 0
 374 810 344 787 344 740 c 0
 344 693 374 669 433 669 c 0
 480 669 528 693 577 740 c 1
948 740 m 0
 948 787 916 811 853 811 c 0
 802 811 752 787 701 740 c 1
 748 693 799 669 853 669 c 0
 916 669 948 693 948 740 c 0
EndSplineSet
EndChar

StartChar: integral
Encoding: 8747 8747 227
Width: 767
VWidth: 0
GlyphClass: 2
Flags: W
HStem: -17 199<116.688 366> 1587 196<396 649.961>
VStem: 254 256<192.454 1582.68>
LayerCount: 2
UndoRedoHistory
Layer: 1
Undoes
EndUndoes
Redoes
EndRedoes
EndUndoRedoHistory
Fore
SplineSet
254 1539 m 2
 254 1702 323 1783 469 1783 c 0
 535 1783 596 1773 652 1752 c 1
 652 1574 l 1
 621 1582 596 1587 578 1587 c 0
 523 1587 510 1553 510 1484 c 2
 510 221 l 2
 510 64 442 -17 290 -17 c 0
 226 -17 168 -9 115 8 c 1
 115 186 l 1
 134 184 150 182 163 182 c 0
 246 182 254 215 254 305 c 2
 254 1539 l 2
EndSplineSet
EndChar

StartChar: j
Encoding: 106 106 230
Width: 556
VWidth: 0
GlyphClass: 2
Flags: W
HStem: -196 196<60.6531 165.296> 1480 20G<168 433> 1638 230<164 431>
VStem: 168 265<5.79346 1500 1638 1868>
LayerCount: 2
UndoRedoHistory
Layer: 1
Undoes
EndUndoes
Redoes
EndRedoes
EndUndoRedoHistory
Fore
SplineSet
168 1500 m 1
 433 1500 l 1
 433 79 l 2
 433 -109 351 -193 221 -196 c 1
 146 -200 73 -189 60 -180 c 1
 60 3 l 1
 64 2 88 -2 105 0 c 1
 153 2 168 32 168 69 c 2
 168 1500 l 1
164 1868 m 1
 431 1868 l 1
 431 1638 l 1
 164 1638 l 1
 164 1868 l 1
EndSplineSet
EndChar

StartChar: k
Encoding: 107 107 232
Width: 961
VWidth: 0
GlyphClass: 2
Flags: W
HStem: 0 21G<135 400 664.37 942> 1480 20G<648.493 925> 1755 20G<135 400>
VStem: 135 265<0 713 818 1775>
LayerCount: 2
UndoRedoHistory
Layer: 1
Undoes
EndUndoes
Redoes
EndRedoes
EndUndoRedoHistory
Fore
SplineSet
135 1775 m 1
 400 1775 l 1
 400 818 l 1
 656 1500 l 1
 925 1500 l 1
 636 762 l 1
 942 0 l 1
 672 0 l 1
 400 713 l 1
 400 0 l 1
 135 0 l 1
 135 1775 l 1
EndSplineSet
EndChar

StartChar: kgreenlandic
Encoding: 312 312 234
Width: 937
VWidth: 0
GlyphClass: 2
Flags: W
HStem: 0 21G<132 397 661.37 939> 1480 20G<132 397 645.493 922>
VStem: 132 265<0 713 818 1500>
LayerCount: 2
UndoRedoHistory
Layer: 1
Undoes
EndUndoes
Redoes
EndRedoes
EndUndoRedoHistory
Fore
SplineSet
132 1500 m 1
 397 1500 l 1
 397 818 l 1
 653 1500 l 1
 922 1500 l 1
 633 762 l 1
 939 0 l 1
 669 0 l 1
 397 713 l 1
 397 0 l 1
 132 0 l 1
 132 1500 l 1
EndSplineSet
EndChar

StartChar: l
Encoding: 108 108 235
Width: 531
VWidth: 0
GlyphClass: 2
Flags: W
HStem: 0 21G<132 396> 1755 20G<132 396>
VStem: 132 264<0 1775>
LayerCount: 2
UndoRedoHistory
Layer: 1
Undoes
EndUndoes
Redoes
EndRedoes
EndUndoRedoHistory
Fore
SplineSet
132 1775 m 1
 396 1775 l 1
 396 0 l 1
 132 0 l 1
 132 1775 l 1
EndSplineSet
EndChar

StartChar: less
Encoding: 60 60 240
Width: 730
VWidth: 0
GlyphClass: 2
Flags: W
VStem: 65 573
LayerCount: 2
UndoRedoHistory
Layer: 1
Undoes
EndUndoes
Redoes
EndRedoes
EndUndoRedoHistory
Fore
SplineSet
65 899 m 1
 638 1264 l 1
 638 989 l 1
 242 753 l 1
 638 510 l 1
 638 238 l 1
 65 607 l 1
 65 899 l 1
EndSplineSet
EndChar

StartChar: lessequal
Encoding: 8804 8804 241
Width: 781
VWidth: 0
GlyphClass: 2
Flags: W
HStem: 0 179<112 642>
VStem: 82 574
LayerCount: 2
UndoRedoHistory
Layer: 1
Undoes
EndUndoes
Redoes
EndRedoes
EndUndoRedoHistory
Fore
SplineSet
82 947 m 1
 656 1312 l 1
 656 1037 l 1
 259 801 l 1
 656 558 l 1
 656 286 l 1
 82 655 l 1
 82 947 l 1
112 179 m 1
 642 179 l 1
 642 0 l 1
 112 0 l 1
 112 179 l 1
EndSplineSet
EndChar

StartChar: logicalnot
Encoding: 172 172 242
Width: 947
VWidth: 0
GlyphClass: 2
Flags: W
HStem: 743 236<97 602>
VStem: 602 224<439 743>
LayerCount: 2
UndoRedoHistory
Layer: 1
Undoes
EndUndoes
Redoes
EndRedoes
EndUndoRedoHistory
Fore
SplineSet
97 979 m 1
 826 979 l 1
 826 439 l 1
 602 439 l 1
 602 743 l 1
 97 743 l 1
 97 979 l 1
EndSplineSet
EndChar

StartChar: lozenge
Encoding: 9674 9674 243
Width: 921
VWidth: 0
GlyphClass: 2
Flags: W
HStem: 0 21G<270.184 654.704>
LayerCount: 2
UndoRedoHistory
Layer: 1
Undoes
EndUndoes
Redoes
EndRedoes
EndUndoRedoHistory
Fore
SplineSet
277 1436 m 1
 648 1436 l 1
 887 713 l 1
 648 0 l 1
 277 0 l 1
 34 713 l 1
 277 1436 l 1
609 713 m 1
 475 1247 l 1
 443 1247 l 1
 309 713 l 1
 443 179 l 1
 475 179 l 1
 609 713 l 1
EndSplineSet
EndChar

StartChar: lslash
Encoding: 322 322 244
Width: 648
VWidth: 0
GlyphClass: 2
Flags: W
HStem: 0 21<173 437> 1755 20<173 437>
VStem: 49 542 173 264<0 1775>
LayerCount: 2
UndoRedoHistory
Layer: 1
Undoes
EndUndoes
Redoes
EndRedoes
EndUndoRedoHistory
Fore
SplineSet
49 921 m 1xe0
 591 1153 l 1
 591 960 l 1
 49 728 l 1
 49 921 l 1xe0
EndSplineSet
Refer: 235 108 N 1 0 0 1 41 0 2
EndChar

StartChar: m
Encoding: 109 109 245
Width: 1504
VWidth: 0
GlyphClass: 2
Flags: W
HStem: 0 21G<131 396 624 889 1117 1381> 1301 217<485.29 687 952.467 1210.5> 1480 20G<131 396>
VStem: 131 265<0 1265.32 1337 1500> 624 265<0 1271.48> 1117 264<0 1277.88>
LayerCount: 2
UndoRedoHistory
Layer: 1
Undoes
EndUndoes
Redoes
EndRedoes
EndUndoRedoHistory
Fore
SplineSet
1117 0 m 1xdc
 1117 1152 l 2
 1117 1259 1079 1301 1016 1301 c 0
 936 1301 889 1245 889 1138 c 2
 889 0 l 1
 624 0 l 1
 624 1154 l 2
 624 1243 596 1301 526 1301 c 0xdc
 434 1301 396 1220 396 1124 c 2
 396 0 l 1
 131 0 l 1
 131 1500 l 1
 396 1500 l 1xbc
 396 1337 l 1
 425 1443 501 1518 636 1518 c 0
 738 1518 817 1477 858 1367 c 1
 908 1460 989 1518 1113 1518 c 0
 1308 1518 1381 1380 1381 1149 c 2
 1381 0 l 1
 1117 0 l 1xdc
EndSplineSet
EndChar

StartChar: macron
Encoding: 175 175 246
Width: 696
VWidth: 0
GlyphClass: 2
Flags: W
HStem: 926 151<90 597>
VStem: 90 507<926 1077>
LayerCount: 2
UndoRedoHistory
Layer: 1
Undoes
EndUndoes
Redoes
EndRedoes
EndUndoRedoHistory
Fore
SplineSet
90 1077 m 1
 597 1077 l 1
 597 926 l 1
 90 926 l 1
 90 1077 l 1
EndSplineSet
EndChar

StartChar: minus
Encoding: 8722 8722 247
Width: 637
VWidth: 0
GlyphClass: 2
Flags: W
HStem: 509 232<60 576>
VStem: 60 516<509 741>
LayerCount: 2
UndoRedoHistory
Layer: 1
Undoes
EndUndoes
Redoes
EndRedoes
EndUndoRedoHistory
Fore
SplineSet
60 741 m 1
 576 741 l 1
 576 509 l 1
 60 509 l 1
 60 741 l 1
EndSplineSet
EndChar

StartChar: mu
Encoding: 956 956 248
Width: 1022
VWidth: 0
GlyphClass: 2
Flags: W
HStem: 0 21G<618 883> 1480 20G<122 388 619 883>
VStem: 122 266<-186 -19 218.049 1500> 619 264<0 156 230.904 1500>
LayerCount: 2
UndoRedoHistory
Layer: 1
Undoes
EndUndoes
Redoes
EndRedoes
EndUndoRedoHistory
Fore
SplineSet
619 1500 m 1
 883 1500 l 1
 883 0 l 1
 618 0 l 1
 618 156 l 1
 581 54 516 -19 389 -19 c 2
 379 -19 l 1
 379 -186 l 1
 122 -186 l 1
 122 1500 l 1
 388 1500 l 1
 388 381 l 2
 388 266 408 199 497 199 c 0
 590 199 618 284 619 379 c 1
 619 1500 l 1
EndSplineSet
EndChar

StartChar: multiply
Encoding: 215 215 249
Width: 710
VWidth: 0
GlyphClass: 2
Flags: W
HStem: 314 622
VStem: 44 622
LayerCount: 2
UndoRedoHistory
Layer: 1
Undoes
EndUndoes
Redoes
EndRedoes
EndUndoRedoHistory
Fore
SplineSet
502 936 m 1
 666 772 l 1
 519 625 l 1
 666 478 l 1
 502 314 l 1
 355 461 l 1
 208 314 l 1
 44 478 l 1
 191 625 l 1
 44 772 l 1
 208 936 l 1
 355 789 l 1
 502 936 l 1
EndSplineSet
EndChar

StartChar: n
Encoding: 110 110 250
Width: 1020
VWidth: 0
GlyphClass: 2
Flags: W
HStem: 0 21G<131 396 632 897> 1304 214<496.042 723.5> 1480 20G<131 396>
VStem: 131 265<0 1270.97 1328 1500> 632 265<0 1275.86>
LayerCount: 2
UndoRedoHistory
Layer: 1
Undoes
EndUndoes
Redoes
EndRedoes
EndUndoRedoHistory
Fore
SplineSet
396 1328 m 1xb8
 422 1430 513 1518 637 1518 c 0
 810 1518 897 1399 897 1181 c 2
 897 0 l 1
 632 0 l 1
 632 1165 l 2
 632 1252 590 1304 522 1304 c 0xd8
 439 1304 396 1232 396 1127 c 2
 396 0 l 1
 131 0 l 1
 131 1500 l 1
 396 1500 l 1
 396 1328 l 1xb8
EndSplineSet
EndChar

StartChar: nine
Encoding: 57 57 254
Width: 951
VWidth: 0
GlyphClass: 2
Flags: W
HStem: -20 230<378.489 535.645> 664 220<359.481 542.359> 1548 233<364.362 523.827>
VStem: 67 262<915.394 1518.29> 94 253<237.702 519> 557 266<224.304 701 899.409 1516.52>
CounterMasks: 1 e0
LayerCount: 2
UndoRedoHistory
Layer: 1
Undoes
EndUndoes
Redoes
EndRedoes
EndUndoRedoHistory
Fore
SplineSet
67 1248 m 2xf4
 67 1579 137 1781 450 1781 c 0
 776 1781 823 1586 823 1233 c 2
 823 530 l 2
 823 128 711 -20 441 -20 c 0
 221 -20 96 96 94 423 c 1
 94 519 l 1
 347 519 l 1
 347 482 l 1xec
 348 270 366 210 460 210 c 0
 560 210 557 300 557 498 c 2
 557 701 l 1
 524 679 470 664 394 664 c 0
 147 664 67 850 67 1184 c 2
 67 1248 l 2xf4
557 1304 m 2
 557 1468 535 1548 446 1548 c 0
 350 1548 329 1465 329 1301 c 2
 329 1144 l 2xf4
 329 956 351 884 444 884 c 0
 512 884 548 913 557 970 c 1
 557 1304 l 2
EndSplineSet
EndChar

StartChar: notequal
Encoding: 8800 8800 255
Width: 884
VWidth: 0
GlyphClass: 2
Flags: W
HStem: 0 21G<154 395.757> 559 232<103 255 540 782> 942 224<103 325 611 782> 1745 20G<470.361 723>
VStem: 103 679<559 791 942 1166>
CounterMasks: 1 70
LayerCount: 2
UndoRedoHistory
Layer: 1
Undoes
EndUndoes
Redoes
EndRedoes
EndUndoRedoHistory
Fore
SplineSet
154 0 m 1
 255 559 l 1
 103 559 l 1
 103 791 l 1
 297 791 l 1
 325 942 l 1
 103 942 l 1
 103 1166 l 1
 365 1166 l 1
 474 1765 l 1
 723 1765 l 1
 611 1166 l 1
 782 1166 l 1
 782 942 l 1
 569 942 l 1
 540 791 l 1
 782 791 l 1
 782 559 l 1
 497 559 l 1
 392 0 l 1
 154 0 l 1
EndSplineSet
EndChar

StartChar: numbersign
Encoding: 35 35 257
Width: 1288
VWidth: 0
GlyphClass: 2
Flags: W
HStem: 0 21G<153 372.903 557 776.938> 579 174<140 266 516 670 922 1067> 1031 173<207 355 605 760 1011 1134> 1740 20G<496.971 718 900.971 1122>
CounterMasks: 1 f0
LayerCount: 2
UndoRedoHistory
Layer: 1
Undoes
EndUndoes
Redoes
EndRedoes
EndUndoRedoHistory
Fore
SplineSet
905 1760 m 1
 1122 1760 l 1
 1011 1204 l 1
 1134 1204 l 1
 1134 1031 l 1
 977 1031 l 1
 922 753 l 1
 1067 753 l 1
 1067 579 l 1
 887 579 l 1
 773 0 l 1
 557 0 l 1
 670 579 l 1
 482 579 l 1
 369 0 l 1
 153 0 l 1
 266 579 l 1
 140 579 l 1
 140 753 l 1
 300 753 l 1
 355 1031 l 1
 207 1031 l 1
 207 1204 l 1
 389 1204 l 1
 501 1760 l 1
 718 1760 l 1
 605 1204 l 1
 793 1204 l 1
 905 1760 l 1
705 752 m 1
 760 1028 l 1
 571 1028 l 1
 516 752 l 1
 705 752 l 1
EndSplineSet
EndChar

StartChar: o
Encoding: 111 111 258
Width: 970
VWidth: 0
GlyphClass: 2
Flags: W
HStem: -18 214<407.813 563.702> 1304 214<409.641 561.22>
VStem: 110 267<223.616 1273.52> 593 267<225.832 1273.96>
AnchorPoint: "hungarumlaut" 470 1501 basechar 0
AnchorPoint: "ogonek" 486 0 basechar 0
LayerCount: 2
UndoRedoHistory
Layer: 1
Undoes
EndUndoes
Redoes
EndRedoes
EndUndoRedoHistory
Fore
SplineSet
110 1037 m 2
 110 1319 211 1518 486 1518 c 0
 762 1518 860 1320 860 1037 c 2
 860 476 l 2
 860 170 778 -18 486 -18 c 0
 197 -18 110 165 110 476 c 2
 110 1037 l 2
593 1084 m 2
 593 1219 572 1304 486 1304 c 0
 396 1304 377 1219 377 1084 c 2
 377 413 l 2
 377 284 395 196 486 196 c 0
 575 196 593 284 593 413 c 2
 593 1084 l 2
EndSplineSet
EndChar

StartChar: oe
Encoding: 339 339 263
Width: 1451
VWidth: 0
GlyphClass: 2
Flags: W
HStem: -18 214<412.952 571.464 894.916 1054.26> 726 180<869 1082> 1309 209<415.966 567.121 899.798 1052>
VStem: 110 270<225.152 1273.52> 602 266<222.763 726 906 1277.78> 1082 263<225.454 569 906 1288.02>
LayerCount: 2
UndoRedoHistory
Layer: 1
Undoes
EndUndoes
Redoes
EndRedoes
EndUndoRedoHistory
Fore
SplineSet
737 1410 m 1
 795 1478 876 1518 985 1518 c 0
 1265 1518 1347 1340 1347 1053 c 1
 1347 1053 1347 752 1345 726 c 1
 868 726 l 1
 868 437 l 2
 868 291 877 196 979 196 c 0
 1081 196 1082 323 1082 464 c 0
 1082 494 1082 566 1081 569 c 1
 1345 569 l 1
 1345 499 l 2
 1345 177 1284 -18 973 -18 c 0
 867 -18 791 21 737 85 c 1
 678 21 599 -18 492 -18 c 0
 203 -18 110 167 110 478 c 2
 110 1037 l 2
 110 1319 217 1518 492 1518 c 0
 596 1518 676 1478 737 1410 c 1
602 1084 m 2
 602 1219 578 1304 492 1304 c 0
 402 1304 380 1219 380 1084 c 2
 380 413 l 2
 380 284 400 196 492 196 c 0
 580 196 602 284 602 413 c 2
 602 1084 l 2
1082 1079 m 2
 1082 1229 1068 1309 983 1309 c 0
 877 1309 868 1195 868 1059 c 0
 868 1047 869 919 869 906 c 1
 1082 906 l 1
 1082 1079 l 2
EndSplineSet
EndChar

StartChar: ogonek
Encoding: 731 731 264
Width: 1015
VWidth: 0
GlyphClass: 2
Flags: W
HStem: -626 158<582.245 811.125> -20 20G<535.5 731>
VStem: 358 193<-436.862 -217.707>
AnchorPoint: "ogonek" 682 0 mark 0
LayerCount: 2
UndoRedoHistory
Layer: 1
Undoes
EndUndoes
Redoes
EndRedoes
EndUndoRedoHistory
Fore
SplineSet
624 0 m 1
 731 0 l 1
 630 -106 551 -231 551 -339 c 0
 551 -427 612 -468 703 -468 c 0
 754 -468 799 -456 812 -453 c 1
 812 -591 l 1
 789 -604 711 -626 643 -626 c 0
 458 -626 358 -531 358 -382 c 0
 358 -253 447 -99 624 0 c 1
EndSplineSet
EndChar

StartChar: one
Encoding: 49 49 268
Width: 676
VWidth: 0
GlyphClass: 2
Flags: W
HStem: 0 21G<258 526> 1342 199<40 164.624> 1740 20G<290 526>
VStem: 258 268<0 1428>
LayerCount: 2
UndoRedoHistory
Layer: 1
Undoes
EndUndoes
Redoes
EndRedoes
EndUndoRedoHistory
Fore
SplineSet
318 1760 m 1
 526 1760 l 1
 526 0 l 1
 258 0 l 1
 258 1428 l 1
 210 1371 114 1342 40 1342 c 1
 40 1541 l 1
 146 1556 262 1628 318 1760 c 1
EndSplineSet
EndChar

StartChar: onehalf
Encoding: 189 189 269
Width: 1620
VWidth: 0
GlyphClass: 2
Flags: W
HStem: 0 138<1245 1521> 1002 146<1244.28 1349.59> 1419 119<90 203> 1747 20G<917.341 1112>
VStem: 232 180<551 1466> 280 132<1607.06 1680> 1055 170<689 991.945> 1365 168<641.145 996.524>
LayerCount: 2
UndoRedoHistory
Layer: 1
Undoes
EndUndoes
Redoes
EndRedoes
EndUndoRedoHistory
Fore
SplineSet
1054 759 m 1xf3
 1054 1009 1088 1148 1304 1148 c 0
 1470 1148 1533 1005 1533 836 c 0
 1533 532 1311 392 1245 138 c 1
 1521 138 l 1
 1521 0 l 1
 1057 0 l 1
 1057 58 l 2
 1057 214 1243 539 1313 624 c 1
 1345 675 1365 762 1365 842 c 0
 1365 970 1337 1002 1296 1002 c 0
 1255 1002 1225 970 1225 834 c 2
 1225 689 l 1
 1055 689 l 1
 1054 759 l 1xf3
280 1680 m 1xf7
 412 1680 l 1xf7
 412 551 l 1
 232 551 l 1
 232 1466 l 1xfb
 195 1435 139 1419 90 1419 c 1
 90 1538 l 1
 158 1544 260 1600 280 1680 c 1xf7
923 1767 m 1
 1112 1767 l 1
 612 0 l 1
 423 0 l 1
 923 1767 l 1
EndSplineSet
EndChar

StartChar: onequarter
Encoding: 188 188 270
Width: 1535
VWidth: 0
GlyphClass: 2
Flags: W
HStem: 0 21G<423 617.659 1191 1350> 192 132<1050 1191 1350 1419> 1419 119<90 203> 1747 20G<917.341 1112>
VStem: 232 180<551 1466> 280 132<1607.06 1680> 1191 159<0 192 324 864>
LayerCount: 2
UndoRedoHistory
Layer: 1
Undoes
EndUndoes
Redoes
EndRedoes
EndUndoRedoHistory
Fore
SplineSet
923 1767 m 1xf2
 1112 1767 l 1
 612 0 l 1
 423 0 l 1
 923 1767 l 1xf2
280 1680 m 1xf6
 412 1680 l 1xf6
 412 551 l 1
 232 551 l 1
 232 1466 l 1xfa
 195 1435 139 1419 90 1419 c 1
 90 1538 l 1
 158 1544 260 1600 280 1680 c 1xf6
1127 1065 m 1
 1350 1065 l 1
 1350 324 l 1
 1419 324 l 1
 1419 192 l 1
 1350 192 l 1
 1350 0 l 1
 1191 0 l 1
 1191 192 l 1
 902 192 l 1
 902 306 l 1
 1127 1065 l 1
1191 324 m 1
 1191 864 l 1
 1050 324 l 1
 1191 324 l 1
EndSplineSet
EndChar

StartChar: ordfeminine
Encoding: 170 170 271
Width: 927
VWidth: 0
GlyphClass: 2
Flags: W
HStem: 385 168<308.997 501.897> 1437 170<406.953 536.696>
VStem: 166 215<561.097 965.761> 182 209<1223 1428.79> 552 215<397 507 568.952 1037 1154.03 1427.86>
LayerCount: 2
UndoRedoHistory
Layer: 1
Undoes
EndUndoes
Redoes
EndRedoes
EndUndoRedoHistory
Fore
SplineSet
182 1259 m 0xd8
 182 1477 246 1607 481 1607 c 0
 688 1607 767 1482 767 1250 c 2
 767 397 l 1
 555 397 l 1
 555 507 l 1
 541 455 475 385 386 385 c 0
 223 385 168 513 166 709 c 1
 166 788 l 2xe8
 166 1045 318 1082 553 1170 c 1
 553 1212 l 2
 553 1335 559 1437 473 1437 c 0
 407 1437 391 1391 391 1281 c 2
 391 1223 l 1
 183 1223 l 1
 182 1228 182 1251 182 1259 c 0xd8
552 640 m 1
 552 1037 l 1
 421 981 381 950 381 831 c 2
 381 710 l 2
 381 600 401 553 459 553 c 0
 512 553 544 601 552 640 c 1
EndSplineSet
EndChar

StartChar: ordmasculine
Encoding: 186 186 272
Width: 908
VWidth: 0
GlyphClass: 2
Flags: W
HStem: 381 170<403.103 525.054> 1435 171<394.139 529.049>
VStem: 159 216<567.076 1417.99> 551 215<568.345 1419.33>
LayerCount: 2
UndoRedoHistory
Layer: 1
Undoes
EndUndoes
Redoes
EndRedoes
EndUndoRedoHistory
Fore
SplineSet
159 1222 m 2
 159 1445 236 1606 464 1606 c 0
 700 1606 766 1448 766 1222 c 2
 766 776 l 2
 766 533 696 381 464 381 c 0
 233 381 159 528 159 776 c 2
 159 1222 l 2
551 1260 m 2
 551 1368 533 1435 464 1435 c 0
 392 1435 375 1368 375 1260 c 2
 375 725 l 2
 375 620 398 552 464 551 c 0
 527 550 551 616 551 725 c 2
 551 1260 l 2
EndSplineSet
EndChar

StartChar: oslash
Encoding: 248 248 273
Width: 879
VWidth: 0
GlyphClass: 2
Flags: W
HStem: -18 214<407.813 563.702> 1304 214<409.641 561.22>
VStem: 110 267<223.616 1273.52> 593 267<225.832 1273.96>
LayerCount: 2
UndoRedoHistory
Layer: 1
Undoes
EndUndoes
Redoes
EndRedoes
EndUndoRedoHistory
Fore
SplineSet
184 -145 m 1
 693 1672 l 1
 794 1644 l 1
 284 -173 l 1
 184 -145 l 1
EndSplineSet
Refer: 258 111 N 1 0 0 1 0 0 2
EndChar

StartChar: p
Encoding: 112 112 275
Width: 998
VWidth: 0
GlyphClass: 2
Flags: W
HStem: -285 21G<132 397> -18 215<457.784 720.934> 1304 211<480.723 728> 1480 20G<132 397>
VStem: 132 265<-285 91 224.647 1275.28 1365 1500> 621 267<230.83 1273.3>
LayerCount: 2
UndoRedoHistory
Layer: 1
Undoes
EndUndoes
Redoes
EndRedoes
EndUndoRedoHistory
Fore
SplineSet
397 1365 m 1xdc
 436 1463 529 1515 613 1515 c 0xec
 843 1515 888 1312 888 1048 c 2
 888 501 l 2
 888 212 851 -18 587 -18 c 0
 505 -18 435 33 397 91 c 1
 397 -285 l 1
 132 -285 l 1
 132 1500 l 1
 397 1500 l 1
 397 1365 l 1xdc
621 1072 m 2
 621 1202 611 1304 516 1304 c 0
 442 1304 397 1259 397 1073 c 2
 397 439 l 2
 397 285 417 197 514 197 c 0
 603 197 621 287 621 450 c 2
 621 1072 l 2
EndSplineSet
EndChar

StartChar: paragraph
Encoding: 182 182 276
Width: 1119
VWidth: 0
GlyphClass: 2
Flags: W
HStem: 0 21G<442 636 779 973> 1527 233<636 779>
VStem: 109 527<1242.74 1517.24> 442 194<0 1092.63> 779 194<0 1527>
LayerCount: 2
UndoRedoHistory
Layer: 1
Undoes
EndUndoes
Redoes
EndRedoes
EndUndoRedoHistory
Fore
SplineSet
641 1760 m 2xe8
 973 1760 l 1
 973 0 l 1
 779 0 l 1
 779 1527 l 1
 636 1527 l 1
 636 0 l 1
 442 0 l 1
 442 1087 l 1xd8
 218 1112 109 1217 109 1437 c 0
 109 1704 292 1760 641 1760 c 2xe8
EndSplineSet
EndChar

StartChar: parenleft
Encoding: 40 40 277
Width: 619
VWidth: 0
GlyphClass: 2
Flags: W
HStem: -136 200<430.752 534> 1623 200<430.752 534>
VStem: 129 266<89.7031 1597.3>
LayerCount: 2
UndoRedoHistory
Layer: 1
Undoes
EndUndoes
Redoes
EndRedoes
EndUndoRedoHistory
Fore
SplineSet
129 1374 m 2
 129 1737 235 1823 534 1823 c 1
 534 1623 l 1
 414 1623 395 1577 395 1378 c 2
 395 309 l 2
 395 110 414 64 534 64 c 1
 534 -136 l 1
 235 -136 129 -50 129 313 c 2
 129 1374 l 2
EndSplineSet
EndChar

StartChar: parenright
Encoding: 41 41 278
Width: 619
VWidth: 0
GlyphClass: 2
Flags: W
HStem: -136 200<86 189.205> 1623 200<86 189.205>
VStem: 225 265<89.7031 1597.3>
LayerCount: 2
UndoRedoHistory
Layer: 1
Undoes
EndUndoes
Redoes
EndRedoes
EndUndoRedoHistory
Fore
SplineSet
490 1374 m 2
 490 313 l 2
 490 -50 385 -136 86 -136 c 1
 86 64 l 1
 206 64 225 110 225 309 c 2
 225 1378 l 2
 225 1577 206 1623 86 1623 c 1
 86 1823 l 1
 385 1823 490 1737 490 1374 c 2
EndSplineSet
EndChar

StartChar: partialdiff
Encoding: 8706 8706 279
Width: 1072
VWidth: 0
GlyphClass: 2
Flags: W
HStem: -26.3467 201.347<394.584 534.154> 900.76 166.74<487.626 644.811> 1480.33 174.5<368.683 677.609>
VStem: 162.847 222.791<180.002 610.946> 720.565 210.648<1041.24 1439.03>
LayerCount: 2
UndoRedoHistory
Layer: 1
Undoes
EndUndoes
Redoes
EndRedoes
EndUndoRedoHistory
Fore
SplineSet
459 175 m 0
 525 175 553.01 231.094 560 301 c 1
 647 879 l 1
 612.777 893.32 583.992 900.76 559.797 900.76 c 0
 497.85 900.76 465.992 851.984 450 745 c 2
 392 357 l 1
 388.959 329.051 385.638 299.902 385.638 273.334 c 0
 385.638 218.717 399.67 175 459 175 c 0
167 343 m 0
 217.325 708.187 216.875 1067.5 504.094 1067.5 c 0
 553.362 1067.5 617.095 1056.93 685 1034 c 1
 718.809 1265.19 l 2
 719.992 1278.82 720.565 1291.65 720.565 1303.7 c 0
 720.565 1443.42 643.613 1480.33 547.625 1480.33 c 0
 492.051 1480.33 430.096 1467.96 373 1456 c 1
 339 1617 l 1
 419.351 1639.92 503.332 1654.83 581.955 1654.83 c 0
 772.286 1654.83 931.213 1567.46 931.213 1294.86 c 0
 931.213 1253.87 927.62 1208.7 920 1159 c 2
 780 246 l 2
 751.576 60.6348 591.932 -26.3467 453.009 -26.3467 c 0
 297.74 -26.3467 162.847 82.3894 162.847 284.216 c 0
 162.847 303.008 164.19 322.607 167 343 c 0
EndSplineSet
EndChar

StartChar: percent
Encoding: 37 37 280
Width: 2209
VWidth: 0
GlyphClass: 2
Flags: W
HStem: -21 188<1654.62 1827.81> 0 21G<662 882.682> 580 188<381.616 554.527> 993 187<1652.19 1830.25> 1594 187<379.187 556.813> 1740 20G<1339.22 1551>
VStem: 130 226<787.276 1572.18> 580 226<787.276 1572.18> 1403 226<186.276 971.18> 1854 226<186.276 971.18>
LayerCount: 2
UndoRedoHistory
Layer: 1
Undoes
EndUndoes
Redoes
EndRedoes
EndUndoRedoHistory
Fore
SplineSet
1347 1760 m 1x77c0
 1551 1760 l 1
 875 0 l 1
 662 0 l 1
 1347 1760 l 1x77c0
580 1431 m 2
 580 1547 558 1594 468 1594 c 0x3bc0
 378 1594 356 1546 356 1431 c 2
 356 939 l 2
 356 821 381 768 468 768 c 0
 555 768 580 821 580 939 c 2
 580 1431 l 2
130 1363 m 2
 130 1658 223 1781 468 1781 c 0
 713 1781 806 1658 806 1363 c 2
 806 1005 l 2
 806 713 706 580 468 580 c 0
 231 580 130 713 130 1005 c 2
 130 1363 l 2
1403 762 m 2
 1403 1057 1496 1180 1741 1180 c 0
 1987 1180 2080 1057 2080 762 c 2
 2080 404 l 2
 2080 112 1979 -21 1741 -21 c 0xb3c0
 1504 -21 1403 112 1403 404 c 2
 1403 762 l 2
1854 830 m 2
 1854 946 1831 993 1741 993 c 0
 1651 993 1629 945 1629 830 c 2
 1629 338 l 2
 1629 220 1654 167 1741 167 c 0
 1828 167 1854 220 1854 338 c 2
 1854 830 l 2
EndSplineSet
EndChar

StartChar: period
Encoding: 46 46 281
Width: 532
VWidth: 0
GlyphClass: 2
Flags: W
HStem: 0 246<149 374>
VStem: 149 225<0 246>
LayerCount: 2
UndoRedoHistory
Layer: 1
Undoes
EndUndoes
Redoes
EndRedoes
EndUndoRedoHistory
Fore
SplineSet
149 246 m 1
 374 246 l 1
 374 0 l 1
 149 0 l 1
 149 246 l 1
EndSplineSet
EndChar

StartChar: periodcentered
Encoding: 183 183 282
Width: 480
VWidth: 0
GlyphClass: 2
Flags: W
HStem: 750 245<132 363>
VStem: 132 231<750 995>
LayerCount: 2
UndoRedoHistory
Layer: 1
Undoes
EndUndoes
Redoes
EndRedoes
EndUndoRedoHistory
Fore
SplineSet
132 995 m 1
 363 995 l 1
 363 750 l 1
 132 750 l 1
 132 995 l 1
EndSplineSet
EndChar

StartChar: perthousand
Encoding: 8240 8240 283
Width: 3107
VWidth: 0
GlyphClass: 2
Flags: W
HStem: -21 188<1665.47 1838.53 2552.8 2725.81> 0 21G<662 882.682> 580 188<381.616 554.527> 993 187<1663.19 1840.81 2550.19 2728.25> 1594 187<379.187 556.813> 1740 20G<1339.22 1551>
VStem: 130 226<787.276 1572.18> 580 226<787.276 1572.18> 1414 226<186.276 971.18> 1864 226<186.276 971.18> 2301 226<186.276 971.18> 2752 226<186.276 971.18>
CounterMasks: 1 00f0
LayerCount: 2
UndoRedoHistory
Layer: 1
Undoes
EndUndoes
Redoes
EndRedoes
EndUndoRedoHistory
Fore
SplineSet
1347 1760 m 1x77f0
 1551 1760 l 1
 875 0 l 1
 662 0 l 1
 1347 1760 l 1x77f0
580 1431 m 2
 580 1547 558 1594 468 1594 c 0x3bf0
 378 1594 356 1546 356 1431 c 2
 356 939 l 2
 356 821 381 768 468 768 c 0
 555 768 580 821 580 939 c 2
 580 1431 l 2
130 1363 m 2
 130 1658 223 1781 468 1781 c 0
 713 1781 806 1658 806 1363 c 2
 806 1005 l 2
 806 713 706 580 468 580 c 0
 231 580 130 713 130 1005 c 2
 130 1363 l 2
1864 830 m 2
 1864 946 1842 993 1752 993 c 0
 1662 993 1640 945 1640 830 c 2
 1640 338 l 2
 1640 220 1665 167 1752 167 c 0xb3f0
 1839 167 1864 220 1864 338 c 2
 1864 830 l 2
1414 762 m 2
 1414 1057 1507 1180 1752 1180 c 0
 1997 1180 2090 1057 2090 762 c 2
 2090 404 l 2
 2090 112 1990 -21 1752 -21 c 0
 1514 -21 1414 112 1414 404 c 2
 1414 762 l 2
2301 762 m 2
 2301 1057 2394 1180 2639 1180 c 0
 2885 1180 2978 1057 2978 762 c 2
 2978 404 l 2
 2978 112 2877 -21 2639 -21 c 0
 2402 -21 2301 112 2301 404 c 2
 2301 762 l 2
2752 830 m 2
 2752 946 2729 993 2639 993 c 0
 2549 993 2527 945 2527 830 c 2
 2527 338 l 2
 2527 220 2553 167 2639 167 c 0
 2726 167 2752 220 2752 338 c 2
 2752 830 l 2
EndSplineSet
EndChar

StartChar: plus
Encoding: 43 43 285
Width: 808
VWidth: 0
GlyphClass: 2
Flags: W
HStem: 654 177<94 312 494 713>
VStem: 312 182<421 654 831 1062>
LayerCount: 2
UndoRedoHistory
Layer: 1
Undoes
EndUndoes
Redoes
EndRedoes
EndUndoRedoHistory
Fore
SplineSet
312 1062 m 1
 494 1062 l 1
 494 831 l 1
 713 831 l 1
 713 654 l 1
 494 654 l 1
 494 421 l 1
 312 421 l 1
 312 654 l 1
 94 654 l 1
 94 831 l 1
 312 831 l 1
 312 1062 l 1
EndSplineSet
EndChar

StartChar: plusminus
Encoding: 177 177 286
Width: 854
VWidth: 0
GlyphClass: 2
Flags: W
HStem: 112 183<156 672> 708 177<118 336 518 738>
VStem: 336 182<475 708 885 1116>
LayerCount: 2
UndoRedoHistory
Layer: 1
Undoes
EndUndoes
Redoes
EndRedoes
EndUndoRedoHistory
Fore
SplineSet
336 1116 m 1
 518 1116 l 1
 518 885 l 1
 738 885 l 1
 738 708 l 1
 518 708 l 1
 518 475 l 1
 336 475 l 1
 336 708 l 1
 118 708 l 1
 118 885 l 1
 336 885 l 1
 336 1116 l 1
156 295 m 1
 672 295 l 1
 672 112 l 1
 156 112 l 1
 156 295 l 1
EndSplineSet
EndChar

StartChar: product
Encoding: 8719 8719 287
Width: 1033
VWidth: 0
GlyphClass: 2
Flags: W
HStem: 0 21G<136 399 634 896> 1543 217<399 634>
VStem: 136 263<0 1543> 634 262<0 1543>
LayerCount: 2
UndoRedoHistory
Layer: 1
Undoes
EndUndoes
Redoes
EndRedoes
EndUndoRedoHistory
Fore
SplineSet
136 1760 m 1
 896 1760 l 1
 896 0 l 1
 634 0 l 1
 634 1543 l 1
 399 1543 l 1
 399 0 l 1
 136 0 l 1
 136 1760 l 1
EndSplineSet
EndChar

StartChar: q
Encoding: 113 113 288
Width: 994
VWidth: 0
GlyphClass: 2
Flags: W
HStem: -285 21G<597 862> -18 214<282.781 537.251> 1303 212<280 530.158> 1480 20G<597 862>
VStem: 110 266<217.183 1272.85> 597 265<-285 102 223.053 1272.75 1386 1500>
LayerCount: 2
UndoRedoHistory
Layer: 1
Undoes
EndUndoes
Redoes
EndRedoes
EndUndoRedoHistory
Fore
SplineSet
110 1048 m 2xdc
 110 1311 171 1515 389 1515 c 0xec
 473 1515 558 1476 597 1386 c 1
 597 1500 l 1
 862 1500 l 1
 862 -285 l 1
 597 -285 l 1
 597 102 l 1
 570 37 494 -18 411 -18 c 0
 163 -18 110 194 110 481 c 2
 110 1048 l 2xdc
597 1063 m 2
 597 1226 569 1303 481 1303 c 0
 390 1303 376 1213 376 1058 c 2
 376 436 l 2
 376 299 384 196 478 196 c 0
 562 196 597 252 597 429 c 2
 597 1063 l 2
EndSplineSet
EndChar

StartChar: question
Encoding: 63 63 289
Width: 897
VWidth: 0
GlyphClass: 2
Flags: W
HStem: 0 299<257 489> 1549 232<399.812 533.341>
VStem: 120 261<1160 1538.94> 257 232<0 299 494 695.871> 547 268<969.793 1541.4>
LayerCount: 2
UndoRedoHistory
Layer: 1
Undoes
EndUndoes
Redoes
EndRedoes
EndUndoRedoHistory
Fore
SplineSet
120 1376 m 2xe8
 120 1591 194 1781 465 1781 c 0
 769 1781 815 1602 815 1283 c 0
 815 937 765 764 487 684 c 1
 487 494 l 1
 251 494 l 1
 251 810 l 1
 536 883 547 997 547 1340 c 0
 547 1481 549 1549 469 1549 c 0
 382 1549 381 1484 381 1336 c 2
 381 1160 l 1
 120 1160 l 1
 120 1376 l 2xe8
257 299 m 1xd8
 489 299 l 1
 489 0 l 1
 257 0 l 1
 257 299 l 1xd8
EndSplineSet
EndChar

StartChar: quotedbl
Encoding: 34 34 291
Width: 944
VWidth: 0
GlyphClass: 2
Flags: W
HStem: 1125 635<241 349 606 714>
VStem: 241 108<1125 1253.22> 606 108<1125 1255.05>
LayerCount: 2
UndoRedoHistory
Layer: 1
Undoes
EndUndoes
Redoes
EndRedoes
EndUndoRedoHistory
Fore
SplineSet
536 1760 m 1
 780 1760 l 1
 714 1125 l 1
 606 1125 l 1
 536 1760 l 1
170 1760 m 1
 415 1760 l 1
 349 1125 l 1
 241 1125 l 1
 170 1760 l 1
EndSplineSet
EndChar

StartChar: quotedblbase
Encoding: 8222 8222 292
Width: 1016
VWidth: 0
GlyphClass: 2
Flags: W
HStem: 0 261<151 286 617 752>
VStem: 151 330<0 261> 617 330<0 261>
LayerCount: 2
UndoRedoHistory
Layer: 1
Undoes
EndUndoes
Redoes
EndRedoes
EndUndoRedoHistory
Fore
SplineSet
617 261 m 1
 947 261 l 1
 947 8 l 1
 838 -373 l 1
 674 -373 l 1
 752 0 l 1
 617 0 l 1
 617 261 l 1
151 261 m 1
 481 261 l 1
 481 8 l 1
 372 -373 l 1
 208 -373 l 1
 286 0 l 1
 151 0 l 1
 151 261 l 1
EndSplineSet
EndChar

StartChar: quotedblleft
Encoding: 8220 8220 293
Width: 1030
VWidth: 0
GlyphClass: 2
Flags: W
HStem: 1141 262<336 471 802 937> 1755 20G<244.226 414 710.226 880>
VStem: 140 331<1141 1403> 606 331<1141 1403>
LayerCount: 2
UndoRedoHistory
Layer: 1
Undoes
EndUndoes
Redoes
EndRedoes
EndUndoRedoHistory
Fore
SplineSet
716 1775 m 1
 880 1775 l 1
 802 1403 l 1
 937 1403 l 1
 937 1141 l 1
 606 1141 l 1
 606 1394 l 1
 716 1775 l 1
250 1775 m 1
 414 1775 l 1
 336 1403 l 1
 471 1403 l 1
 471 1141 l 1
 140 1141 l 1
 140 1394 l 1
 250 1775 l 1
EndSplineSet
EndChar

StartChar: quotedblright
Encoding: 8221 8221 294
Width: 1077
VWidth: 0
GlyphClass: 2
Flags: W
HStem: 1513 262<155 290 621 756>
VStem: 155 331<1513 1775> 621 331<1513 1775>
LayerCount: 2
UndoRedoHistory
Layer: 1
Undoes
EndUndoes
Redoes
EndRedoes
EndUndoRedoHistory
Fore
SplineSet
621 1775 m 1
 952 1775 l 1
 952 1522 l 1
 842 1141 l 1
 678 1141 l 1
 756 1513 l 1
 621 1513 l 1
 621 1775 l 1
155 1775 m 1
 486 1775 l 1
 486 1522 l 1
 376 1141 l 1
 212 1141 l 1
 290 1513 l 1
 155 1513 l 1
 155 1775 l 1
EndSplineSet
EndChar

StartChar: quoteleft
Encoding: 8216 8216 295
Width: 586
VWidth: 0
GlyphClass: 2
Flags: W
HStem: 1065 280<315 468> 1755 20G<248.804 408>
VStem: 119 349<1065 1345>
LayerCount: 2
UndoRedoHistory
Layer: 1
Undoes
EndUndoes
Redoes
EndRedoes
EndUndoRedoHistory
Fore
SplineSet
255 1775 m 1
 408 1775 l 1
 315 1345 l 1
 468 1345 l 1
 468 1065 l 1
 119 1065 l 1
 119 1336 l 1
 255 1775 l 1
EndSplineSet
EndChar

StartChar: quoteright
Encoding: 8217 8217 296
Width: 586
VWidth: 0
GlyphClass: 2
Flags: W
HStem: 1494 281<129 282>
VStem: 129 349<1494 1775>
LayerCount: 2
UndoRedoHistory
Layer: 1
Undoes
EndUndoes
Redoes
EndRedoes
EndUndoRedoHistory
Fore
SplineSet
129 1775 m 1
 478 1775 l 1
 478 1503 l 1
 342 1065 l 1
 188 1065 l 1
 282 1494 l 1
 129 1494 l 1
 129 1775 l 1
EndSplineSet
EndChar

StartChar: quotesinglbase
Encoding: 8218 8218 297
Width: 484
VWidth: 0
GlyphClass: 2
Flags: W
HStem: 0 258<80 216>
VStem: 80 331<0 258>
LayerCount: 2
UndoRedoHistory
Layer: 1
Undoes
EndUndoes
Redoes
EndRedoes
EndUndoRedoHistory
Fore
SplineSet
80 258 m 1
 411 258 l 1
 411 9 l 1
 302 -324 l 1
 138 -324 l 1
 216 0 l 1
 80 0 l 1
 80 258 l 1
EndSplineSet
EndChar

StartChar: quotesingle
Encoding: 39 39 298
Width: 423
VWidth: 0
GlyphClass: 2
Flags: W
HStem: 1125 635<160 273>
VStem: 160 113<1125 1265.05>
LayerCount: 2
UndoRedoHistory
Layer: 1
Undoes
EndUndoes
Redoes
EndRedoes
EndUndoRedoHistory
Fore
SplineSet
100 1760 m 1
 338 1760 l 1
 273 1125 l 1
 160 1125 l 1
 100 1760 l 1
EndSplineSet
EndChar

StartChar: r
Encoding: 114 114 299
Width: 697
VWidth: 0
GlyphClass: 2
Flags: W
HStem: 0 21G<132 399> 1294 224<497.559 655.719> 1480 20G<132 399>
VStem: 132 267<0 1237.05 1333 1500>
LayerCount: 2
UndoRedoHistory
Layer: 1
Undoes
EndUndoes
Redoes
EndRedoes
EndUndoRedoHistory
Fore
SplineSet
399 1333 m 1xb0
 433 1449 521 1518 654 1518 c 0
 659 1518 657 1294 657 1294 c 1xd0
 564 1294 434 1263 399 1190 c 1
 399 0 l 1
 132 0 l 1
 132 1500 l 1
 399 1500 l 1
 399 1333 l 1xb0
EndSplineSet
EndChar

StartChar: radical
Encoding: 8730 8730 301
Width: 1267
VWidth: 0
GlyphClass: 2
Flags: W
HStem: 0 21G<282.899 616.062> 1300 200<876 1172>
LayerCount: 2
UndoRedoHistory
Layer: 1
Undoes
EndUndoes
Redoes
EndRedoes
EndUndoRedoHistory
Fore
SplineSet
660 1500 m 1
 1172 1500 l 1
 1172 1300 l 1
 876 1300 l 1
 612 0 l 1
 288 0 l 1
 99 741 l 1
 358 741 l 1
 432 288 l 1
 660 1500 l 1
EndSplineSet
EndChar

StartChar: registered
Encoding: 174 174 304
Width: 1502
VWidth: 0
GlyphClass: 2
Flags: W
HStem: 205 129<551.563 950.437> 818 147<720 789.963> 1124 158<720 802.808> 1390 129<551.563 950.437>
VStem: 94 159<646.162 1077.84> 529 190<430 818 965 1124> 791 184<430 815.877 966.219 1120.9> 1249 159<646.162 1077.84>
CounterMasks: 1 0f
LayerCount: 2
UndoRedoHistory
Layer: 1
Undoes
EndUndoes
Redoes
EndRedoes
EndUndoRedoHistory
Fore
SplineSet
720 965 m 1
 768 965 l 2
 793 965 805 991 805 1043 c 0
 805 1114 790 1124 720 1124 c 1
 720 965 l 1
751 205 m 0
 378 205 94 489 94 862 c 0
 94 1235 378 1519 751 1519 c 0
 1124 1519 1408 1235 1408 862 c 0
 1408 489 1124 205 751 205 c 0
751 334 m 0
 1040 334 1249 571 1249 862 c 0
 1249 1153 1040 1390 751 1390 c 0
 462 1390 253 1153 253 862 c 0
 253 571 462 334 751 334 c 0
529 430 m 1
 529 1282 l 1
 818 1282 l 2
 963 1282 989 1187 989 1043 c 0
 989 951 968 896 896 873 c 1
 949 863 975 822 975 751 c 2
 975 430 l 1
 791 430 l 1
 791 762 l 2
 791 812 769 818 719 818 c 1
 719 430 l 1
 529 430 l 1
EndSplineSet
EndChar

StartChar: ring
Encoding: 730 730 305
Width: 923
VWidth: 0
GlyphClass: 2
Flags: W
HStem: 906 94<372.495 553.472> 1261 93<372.495 553.472>
VStem: 228 115<1026.04 1234.27> 581 113<1026.26 1234.27>
LayerCount: 2
UndoRedoHistory
Layer: 1
Undoes
EndUndoes
Redoes
EndRedoes
EndUndoRedoHistory
Fore
SplineSet
228 1130 m 0
 228 1257 315 1354 461 1354 c 0
 608 1354 694 1257 694 1130 c 0
 694 1003 608 906 461 906 c 0
 315 906 228 1002 228 1130 c 0
581 1131 m 0
 581 1196 541 1261 462 1261 c 0
 383 1261 343 1196 343 1131 c 0
 343 1065 383 1000 462 1000 c 0
 541 1000 581 1065 581 1131 c 0
EndSplineSet
EndChar

StartChar: s
Encoding: 115 115 306
Width: 862
VWidth: 0
GlyphClass: 2
Flags: W
HStem: -19 216<364.008 518.354> 1301 217<350.655 507.923>
VStem: 84.7101 249<220.625 518 1017.69 1287.67> 535.71 237<1001 1274.96> 537.71 261<214.926 517.415>
AnchorPoint: "cedilla" 399 0 basechar 0
LayerCount: 2
UndoRedoHistory
Layer: 1
Undoes
EndUndoes
Redoes
EndRedoes
EndUndoRedoHistory
Fore
SplineSet
79.7101 1150 m 0xe8
 79.7101 1404 200.71 1518 434.71 1518 c 0
 662.71 1518 772.71 1402 772.71 1083 c 2
 772.71 1001 l 1
 535.71 1001 l 1
 535.71 1100 l 2xf0
 535.71 1232 509.71 1301 436.71 1301 c 0
 366.71 1301 334.71 1267 331.71 1168 c 1
 330.71 1088 363.71 1014 437.71 943 c 1
 579.71 814 l 1
 726.71 677 798.71 535 798.71 365 c 0
 798.71 113 688.71 -19 441.71 -19 c 0
 200.71 -19 84.7101 109 84.7101 421 c 2
 84.7101 518 l 1
 333.71 518 l 1
 333.71 397 l 2
 333.71 266 363.71 197 435.71 197 c 0
 505.71 197 537.71 238 537.71 353 c 0
 537.71 453 494.71 543 399.71 631 c 0
 390.71 640 284.71 734 264.71 753 c 0
 140.71 866 79.7101 993 79.7101 1150 c 0xe8
EndSplineSet
EndChar

StartChar: section
Encoding: 167 167 312
Width: 950
VWidth: 0
GlyphClass: 2
Flags: W
HStem: -20 240<428.729 560.36> 1542 239<421.714 563.332>
VStem: 107 299<241.298 391> 125 287<1367.93 1533.71> 125 256<809.049 1015.14> 566 289<226.34 396.938> 586 266<738.127 944.892 1372 1529.92>
LayerCount: 2
UndoRedoHistory
Layer: 1
Undoes
EndUndoes
Redoes
EndRedoes
EndUndoRedoHistory
Fore
SplineSet
541 735 m 1xca
 565 775 586 822 586 856 c 0
 586 906 546 967 426 1017 c 1
 396 974 381 935 381 902 c 0
 381 822 467 764 541 735 c 1xca
488 -20 m 0
 243 -20 107 90 107 391 c 1
 406 391 l 1xe4
 406 244 445 220 497 220 c 0
 543 220 566 240 566 303 c 0
 566 388 454 457 336 542 c 0
 238 612 125 697 125 862 c 0xcc
 125 960 166 1067 248 1143 c 1
 166 1218 125 1328 125 1433 c 0
 125 1662 292 1781 487 1781 c 0
 725 1781 853 1667 853 1372 c 1
 580 1372 l 1
 580 1502 560 1542 497 1542 c 0
 435 1542 412 1509 412 1451 c 0
 412 1368 594 1252 640 1221 c 1
 742 1156 852 1044 852 879 c 0xd2
 852 781 782 674 700 598 c 1
 794 511 855 430 855 293 c 0xc4
 855 91 714 -20 488 -20 c 0
EndSplineSet
EndChar

StartChar: semicolon
Encoding: 59 59 313
Width: 561
VWidth: 0
GlyphClass: 2
Flags: W
HStem: 255 278<132 262> 944 306<126 427>
VStem: 126 301<255 533 944 1250> 184 142<-107 -58.205>
LayerCount: 2
UndoRedoHistory
Layer: 1
Undoes
EndUndoes
Redoes
EndRedoes
EndUndoRedoHistory
Fore
SplineSet
132 533 m 1xd0
 435 533 l 1
 435 264 l 1
 326 -107 l 1
 184 -107 l 1
 262 255 l 1
 132 255 l 1
 132 533 l 1xd0
126 1250 m 1xe0
 427 1250 l 1
 427 944 l 1
 126 944 l 1
 126 1250 l 1xe0
EndSplineSet
EndChar

StartChar: seven
Encoding: 55 55 314
Width: 951
VWidth: 0
GlyphClass: 2
Flags: W
HStem: 0 21G<208 512.5> 1526 234<104 604>
VStem: 208 292<0 346.031>
LayerCount: 2
UndoRedoHistory
Layer: 1
Undoes
EndUndoes
Redoes
EndRedoes
EndUndoRedoHistory
Fore
SplineSet
104 1760 m 1
 881 1760 l 1
 881 1566 l 1
 869 1459 779 1284 704 1046 c 1
 612 762 525 405 500 0 c 1
 208 0 l 1
 243 484 377 875 493 1203 c 1
 550 1382 597 1500 604 1526 c 1
 104 1526 l 1
 104 1760 l 1
EndSplineSet
EndChar

StartChar: six
Encoding: 54 54 315
Width: 951
VWidth: 0
GlyphClass: 2
Flags: W
HStem: -21 233<410.75 592.64> 871 232<411.5 580.127> 1548 233<403.739 568.647>
VStem: 102 268<248.355 843.986 1019 1515.26> 595 250<1245 1521.94> 622 259<241.547 833.209>
CounterMasks: 1 e0
LayerCount: 2
UndoRedoHistory
Layer: 1
Undoes
EndUndoes
Redoes
EndRedoes
EndUndoRedoHistory
Fore
SplineSet
370 459 m 2xf4
 370 289 400 212 499 212 c 0
 595 212 622 264 622 434 c 2
 622 601 l 2
 622 796 594 871 504 871 c 0
 428 871 378 826 370 777 c 1
 370 459 l 2xf4
881 483 m 2
 881 152 802 -21 499 -21 c 0
 173 -21 102 185 102 527 c 2
 102 1250 l 2
 102 1652 232 1781 502 1781 c 0
 736 1781 843 1664 845 1336 c 1
 845 1245 l 1
 595 1245 l 1
 595 1281 l 2xf8
 595 1478 587 1548 489 1548 c 0
 387 1548 370 1477 370 1270 c 2
 370 1019 l 1
 409 1072 484 1102 569 1103 c 0
 809 1107 881 928 881 580 c 2
 881 483 l 2
EndSplineSet
EndChar

StartChar: slash
Encoding: 47 47 316
Width: 826
VWidth: 0
GlyphClass: 2
Flags: W
HStem: 0 21G<86 324.839> 1749 20G<508.172 748>
VStem: 86 662
LayerCount: 2
UndoRedoHistory
Layer: 1
Undoes
EndUndoes
Redoes
EndRedoes
EndUndoRedoHistory
Fore
SplineSet
513 1769 m 1
 748 1769 l 1
 320 0 l 1
 86 0 l 1
 513 1769 l 1
EndSplineSet
EndChar

StartChar: sterling
Encoding: 163 163 318
Width: 1077
VWidth: 0
GlyphClass: 2
Flags: W
HStem: 0 226<415 954> 0 205<82 159.648> 783 190<92 281 582 865> 1567 214<454.367 680.814>
VStem: 166 251<1228.19 1529.52> 337 262<400.991 780.537> 719 244<1246 1528.29>
CounterMasks: 1 b0
LayerCount: 2
UndoRedoHistory
Layer: 1
Undoes
EndUndoes
Redoes
EndRedoes
EndUndoRedoHistory
Fore
SplineSet
82 0 m 1x76
 82 205 l 1
 245 276 337 403 337 631 c 0x76
 337 679 332 733 322 783 c 1
 92 783 l 1
 92 973 l 1
 281 973 l 1
 216 1180 166 1352 166 1389 c 0
 166 1638 302 1781 592 1781 c 0
 836 1781 963 1651 963 1381 c 2
 963 1246 l 1
 719 1246 l 1
 719 1393 l 2
 719 1502 675 1567 585 1567 c 0
 484 1567 417 1530 417 1414 c 0x7a
 417 1365 465 1224 532 973 c 1
 865 973 l 1
 865 783 l 1
 582 783 l 1
 593 728 599 671 599 622 c 0
 599 420 530 282 415 226 c 1
 954 226 l 1
 954 0 l 1xb6
 82 0 l 1x76
EndSplineSet
EndChar

StartChar: summation
Encoding: 8721 8721 319
Width: 814
VWidth: 0
GlyphClass: 2
Flags: W
HStem: 0 225<387 711> 1551 209<387 711>
VStem: 114 597<0 221 1555 1760>
LayerCount: 2
UndoRedoHistory
Layer: 1
Undoes
EndUndoes
Redoes
EndRedoes
EndUndoRedoHistory
Fore
SplineSet
114 1760 m 1
 711 1760 l 1
 711 1551 l 1
 387 1551 l 1
 646 880 l 1
 387 225 l 1
 711 225 l 1
 711 0 l 1
 114 0 l 1
 114 221 l 1
 389 881 l 1
 114 1555 l 1
 114 1760 l 1
EndSplineSet
EndChar

StartChar: t
Encoding: 116 116 320
Width: 638
VWidth: 0
GlyphClass: 2
Flags: W
HStem: -10 202<435.307 582.147> 1277 192<44.1472 166.147 431.147 577.147> 1740 20G<166.147 431.147>
VStem: 166.147 265<205.884 1277 1469 1760>
LayerCount: 2
UndoRedoHistory
Layer: 1
Undoes
EndUndoes
Redoes
EndRedoes
EndUndoRedoHistory
Fore
SplineSet
166.147 1760 m 1
 431.147 1760 l 1
 431.147 1469 l 1
 577.147 1469 l 1
 577.147 1277 l 1
 431.147 1277 l 1
 431.147 275 l 2
 431.147 204 454.147 192 582.147 192 c 1
 582.147 -10 l 1
 402.147 -10 l 2
 209.147 -10 166.147 60 166.147 229 c 2
 166.147 1277 l 1
 44.1472 1277 l 1
 44.1472 1469 l 1
 166.147 1469 l 1
 166.147 1760 l 1
EndSplineSet
EndChar

StartChar: thorn
Encoding: 254 254 322
Width: 1000
VWidth: 0
GlyphClass: 2
Flags: W
HStem: -285 21G<133 399> -18 216<458.812 720.573> 1301 214<481.406 727> 1755 20G<133 399>
VStem: 133 266<-285 91 225.647 1272.28 1365 1775> 620 265<221.352 1273.3>
LayerCount: 2
UndoRedoHistory
Layer: 1
Undoes
EndUndoes
Redoes
EndRedoes
EndUndoRedoHistory
Fore
SplineSet
133 1775 m 1
 399 1775 l 1
 399 1365 l 1
 438 1463 528 1515 612 1515 c 0
 842 1515 885 1312 885 1048 c 2
 885 501 l 2
 885 212 850 -18 586 -18 c 0
 504 -18 437 33 399 91 c 1
 399 -285 l 1
 133 -285 l 1
 133 1775 l 1
620 1069 m 2
 620 1199 611 1301 517 1301 c 0
 442 1301 399 1256 399 1070 c 2
 399 440 l 2
 399 286 418 198 515 198 c 0
 604 198 620 288 620 451 c 2
 620 1069 l 2
EndSplineSet
EndChar

StartChar: three
Encoding: 51 51 323
Width: 960
VWidth: 0
GlyphClass: 2
Flags: W
HStem: -20 230<385.665 562.123> 828 204<366 551.224> 1549 231<400.907 570.897>
VStem: 105 251<245.271 589 1261 1509.94> 604 263<248.58 773.32 1081.87 1519.36>
CounterMasks: 1 e0
LayerCount: 2
UndoRedoHistory
Layer: 1
Undoes
EndUndoes
Redoes
EndRedoes
EndUndoRedoHistory
Fore
SplineSet
107 1316 m 2
 107 1630 204 1780 478 1780 c 0
 745 1780 864 1625 864 1316 c 0
 864 1130 809 987 683 941 c 1
 822 876 867 720 867 503 c 0
 867 160 758 -20 469 -20 c 0
 196 -20 105 142 105 474 c 2
 105 589 l 1
 356 589 l 1
 356 467 l 2
 356 288 370 210 478 210 c 0
 584 210 604 307 604 504 c 0
 604 734 574 828 442 828 c 2
 366 828 l 1
 366 1032 l 1
 440 1032 l 2
 568 1032 604 1112 604 1316 c 0
 604 1503 560 1549 484 1549 c 0
 393 1549 366 1484 366 1314 c 2
 366 1261 l 1
 107 1261 l 1
 107 1316 l 2
EndSplineSet
EndChar

StartChar: threequarters
Encoding: 190 190 324
Width: 1555
VWidth: 0
GlyphClass: 2
Flags: W
HStem: 0 21G<474 668.659 1211 1370> 192 132<1070 1211 1370 1439> 598 139<256.658 385.429> 1115 135<265 375.229> 1553 138<263.585 386.472> 1747 20G<968.341 1163>
VStem: 83 160<746.663 969 1378 1540.24> 401 163<746.765 1093.25 1266.72 1544.92> 1211 159<0 192 324 864>
CounterMasks: 1 38
LayerCount: 2
UndoRedoHistory
Layer: 1
Undoes
EndUndoes
Redoes
EndRedoes
EndUndoRedoHistory
Fore
SplineSet
88 1408 m 2
 88 1601 157 1691 323 1691 c 0
 486 1691 561 1595 561 1408 c 0
 561 1294 534 1211 456 1183 c 1
 541 1144 564 1048 564 915 c 0
 564 707 491 598 316 598 c 0
 150 598 83 698 83 899 c 2
 83 969 l 1
 243 969 l 1
 243 899 l 2
 243 783 254 737 322 737 c 0
 390 737 401 795 401 916 c 0
 401 1050 378 1115 290 1115 c 0
 286 1115 268 1115 265 1114 c 1
 265 1250 l 1
 286 1250 l 1
 364 1252 401 1278 401 1407 c 0
 401 1524 369 1553 323 1553 c 0
 268 1553 250 1513 250 1404 c 0
 250 1399 249 1383 249 1378 c 1
 88 1378 l 1
 88 1408 l 2
974 1767 m 1
 1163 1767 l 1
 663 0 l 1
 474 0 l 1
 974 1767 l 1
1147 1065 m 1
 1370 1065 l 1
 1370 324 l 1
 1439 324 l 1
 1439 192 l 1
 1370 192 l 1
 1370 0 l 1
 1211 0 l 1
 1211 192 l 1
 922 192 l 1
 922 306 l 1
 1147 1065 l 1
1211 324 m 1
 1211 864 l 1
 1070 324 l 1
 1211 324 l 1
EndSplineSet
EndChar

StartChar: tilde
Encoding: 732 732 325
Width: 1117
VWidth: 0
GlyphClass: 2
Flags: W
HStem: 906 181<559.204 738.96> 988 173<350.98 575.165>
VStem: 750 142<1089.84 1132.83>
LayerCount: 2
UndoRedoHistory
Layer: 1
Undoes
EndUndoes
Redoes
EndRedoes
EndUndoRedoHistory
Fore
SplineSet
223 979 m 1x60
 262 1114 327 1161 415 1161 c 0x60
 496 1161 640 1087 690 1087 c 2
 694 1087 l 1
 713 1090 729 1098 750 1158 c 1
 892 1130 l 1
 883 1082 l 1
 854 945 800 906 711 906 c 0xa0
 623 906 510 988 427 988 c 0
 419 988 411 988 404 986 c 0
 382 981 371 962 353 927 c 1
 223 979 l 1x60
EndSplineSet
EndChar

StartChar: trademark
Encoding: 8482 8482 326
Width: 1676
VWidth: 0
GlyphClass: 2
Flags: W
HStem: 1592 168<82 231 429 572>
VStem: 231 198<507 1592> 694 186<507 1469> 1373 188<507 1469>
CounterMasks: 1 70
LayerCount: 2
UndoRedoHistory
Layer: 1
Undoes
EndUndoes
Redoes
EndRedoes
EndUndoRedoHistory
Fore
SplineSet
1273 1760 m 1
 1561 1760 l 1
 1561 507 l 1
 1373 507 l 1
 1373 996 l 1
 1380 1469 l 1
 1223 507 l 1
 1038 507 l 1
 873 1469 l 1
 880 996 l 1
 880 507 l 1
 694 507 l 1
 694 1760 l 1
 981 1760 l 1
 1129 883 l 1
 1273 1760 l 1
82 1760 m 1
 572 1760 l 1
 572 1592 l 1
 429 1592 l 1
 429 507 l 1
 231 507 l 1
 231 1592 l 1
 82 1592 l 1
 82 1760 l 1
EndSplineSet
EndChar

StartChar: two
Encoding: 50 50 327
Width: 951
VWidth: 0
GlyphClass: 2
Flags: W
HStem: 0 210<415 821> 1549 231<435.134 568.935>
VStem: 141 256<1065 1519.97> 600 254<1048.74 1525.83>
LayerCount: 2
UndoRedoHistory
Layer: 1
Undoes
EndUndoes
Redoes
EndRedoes
EndUndoRedoHistory
Fore
SplineSet
160 0 m 1
 160 104 l 2
 160 296 226 465 348 679 c 1
 367 707 468 891 522 968 c 1
 570 1048 600 1182 600 1304 c 0
 600 1497 564 1549 504 1549 c 0
 444 1549 397 1513 397 1288 c 2
 397 1065 l 1
 141 1065 l 1
 141 1173 l 2
 141 1553 189 1780 511 1780 c 0
 760 1780 854 1561 854 1293 c 0
 854 823 517 642 415 210 c 1
 821 210 l 1
 821 0 l 1
 160 0 l 1
EndSplineSet
EndChar

StartChar: u
Encoding: 117 117 328
Width: 1010
VWidth: 0
GlyphClass: 2
Flags: W
HStem: -19 218<300 529.563> 0 21G<618 883> 1480 20G<122 388 618.982 883>
VStem: 122 266<218.12 1500> 618 265<0 156 228.452 1500>
AnchorPoint: "hungarumlaut" 489 1500 basechar 0
AnchorPoint: "ogonek" 742 0 basechar 0
LayerCount: 2
UndoRedoHistory
Layer: 1
Undoes
EndUndoes
Redoes
EndRedoes
EndUndoRedoHistory
Fore
SplineSet
619 1500 m 1xb8
 883 1500 l 1
 883 0 l 1
 618 0 l 1x78
 618 156 l 1
 581 54 516 -19 389 -19 c 0
 211 -19 122 101 122 340 c 2
 122 1500 l 1
 388 1500 l 1
 388 381 l 2
 388 266 408 199 497 199 c 0
 590 199 618 284 618 379 c 2
 619 1500 l 1xb8
EndSplineSet
EndChar

StartChar: underscore
Encoding: 95 95 336
Width: 748
VWidth: 0
GlyphClass: 2
Flags: W
HStem: -211 183<48 699>
VStem: 48 651<-211 -28>
LayerCount: 2
UndoRedoHistory
Layer: 1
Undoes
EndUndoes
Redoes
EndRedoes
EndUndoRedoHistory
Fore
SplineSet
48 -28 m 1
 699 -28 l 1
 699 -211 l 1
 48 -211 l 1
 48 -28 l 1
EndSplineSet
EndChar

StartChar: uni00AD
Encoding: 173 173 338
Width: 696
VWidth: 0
GlyphClass: 2
Flags: W
HStem: 509 232<90 606>
VStem: 90 516<509 741>
LayerCount: 2
UndoRedoHistory
Layer: 1
Undoes
EndUndoes
Redoes
EndRedoes
EndUndoRedoHistory
Fore
SplineSet
90 741 m 1
 606 741 l 1
 606 509 l 1
 90 509 l 1
 90 741 l 1
EndSplineSet
EndChar

StartChar: uni00B2
Encoding: 178 178 339
Width: 831
VWidth: 0
GlyphClass: 2
Flags: W
HStem: 565 151<387 678> 1621 159<384.335 494.645>
VStem: 183 182<1294 1606.64> 511 180<1247.03 1614.14>
LayerCount: 2
UndoRedoHistory
Layer: 1
Undoes
EndUndoes
Redoes
EndRedoes
EndUndoRedoHistory
Fore
SplineSet
182 1368 m 1
 182 1633 219 1780 447 1780 c 0
 623 1780 691 1631 691 1450 c 0
 691 1129 458 981 387 716 c 1
 678 716 l 1
 678 565 l 1
 185 565 l 1
 185 627 l 2
 185 797 378 1130 456 1226 c 1
 490 1280 511 1371 511 1455 c 0
 511 1587 482 1621 439 1621 c 0
 395 1621 365 1588 365 1448 c 2
 365 1294 l 1
 183 1294 l 1
 182 1368 l 1
EndSplineSet
EndChar

StartChar: uni00B3
Encoding: 179 179 340
Width: 856
VWidth: 0
GlyphClass: 2
Flags: W
HStem: 602 154<361.136 499.38> 1157 140<366 488.454> 1625 153<366.22 501.309>
VStem: 158 186<769.314 1005 1441 1609.25> 519 196<766.007 1128.42 1321.89 1614.5>
CounterMasks: 1 e0
LayerCount: 2
UndoRedoHistory
Layer: 1
Undoes
EndUndoes
Redoes
EndRedoes
EndUndoRedoHistory
Fore
SplineSet
164 1441 m 1
 163 1474 l 1
 164 1682 239 1778 434 1778 c 0
 624 1778 712 1676 712 1474 c 0
 712 1352 681 1263 592 1233 c 1
 691 1191 715 1089 715 945 c 0
 715 720 631 602 424 602 c 0
 230 602 158 709 158 927 c 2
 158 1005 l 1
 344 1005 l 1
 344 926 l 2
 344 805 357 756 432 756 c 0
 508 756 519 818 519 946 c 0
 519 1086 495 1157 395 1157 c 2
 366 1157 l 1
 366 1297 l 1
 392 1297 l 1
 485 1301 519 1339 519 1472 c 0
 519 1594 485 1625 434 1625 c 0
 371 1625 352 1582 352 1469 c 0
 352 1463 351 1447 351 1441 c 1
 164 1441 l 1
EndSplineSet
EndChar

StartChar: uni00B9
Encoding: 185 185 341
Width: 628
VWidth: 0
GlyphClass: 2
Flags: W
HStem: 1479 130<76 203.245> 1740 20G<285 444>
VStem: 238 206<564 1528> 295 149<1688.96 1760>
LayerCount: 2
UndoRedoHistory
Layer: 1
Undoes
EndUndoes
Redoes
EndRedoes
EndUndoRedoHistory
Fore
SplineSet
295 1760 m 1xd0
 444 1760 l 1xd0
 444 564 l 1
 238 564 l 1
 238 1528 l 1xe0
 195 1496 132 1479 76 1479 c 1
 76 1609 l 1
 154 1615 275 1676 295 1760 c 1xd0
EndSplineSet
EndChar

StartChar: uni0237
Encoding: 567 567 382
Width: 568
VWidth: 0
GlyphClass: 2
Flags: W
HStem: -166 197<65.6531 170.658> 1480 20G<173 438>
VStem: 173 265<34.7962 1500>
AnchorPoint: "circumflex" 302 1491 basechar 0
LayerCount: 2
UndoRedoHistory
Layer: 1
Undoes
EndUndoes
Redoes
EndRedoes
EndUndoRedoHistory
Fore
SplineSet
173 1500 m 1
 438 1500 l 1
 438 108 l 2
 438 -80 356 -164 225 -166 c 1
 151 -170 78 -159 65 -150 c 1
 65 32 l 1
 69 32 93 30 110 31 c 0
 158 34 173 61 173 98 c 2
 173 1500 l 1
EndSplineSet
EndChar

StartChar: uni02C9
Encoding: 713 713 383
Width: 696
VWidth: 0
GlyphClass: 2
Flags: W
HStem: 559 182<70 626>
VStem: 70 556<559 741>
LayerCount: 2
UndoRedoHistory
Layer: 1
Undoes
EndUndoes
Redoes
EndRedoes
EndUndoRedoHistory
Fore
SplineSet
70 741 m 1
 626 741 l 1
 626 559 l 1
 70 559 l 1
 70 741 l 1
EndSplineSet
EndChar

StartChar: uni0307
Encoding: 775 775 384
Width: 572
VWidth: 0
GlyphClass: 2
Flags: W
HStem: 955 298<107 465>
VStem: 107 358<955 1253>
LayerCount: 2
UndoRedoHistory
Layer: 1
Undoes
EndUndoes
Redoes
EndRedoes
EndUndoRedoHistory
Fore
SplineSet
107 1253 m 1
 465 1253 l 1
 465 955 l 1
 107 955 l 1
 107 1253 l 1
EndSplineSet
EndChar

StartChar: uni0311
Encoding: 785 785 385
Width: 1016
VWidth: 0
GlyphClass: 2
Flags: W
HStem: 1775 148<394.941 614.101>
VStem: 224 151<1644 1752.99> 638 151<1649 1752.31>
LayerCount: 2
UndoRedoHistory
Layer: 1
Undoes
EndUndoes
Redoes
EndRedoes
EndUndoRedoHistory
Fore
SplineSet
224 1657 m 1
 223 1832 313 1921 505 1923 c 0
 691 1925 787 1837 789 1664 c 1
 789 1649 l 1
 638 1648 l 1
 637 1758 578 1776 504 1775 c 0
 433 1774 374 1757 375 1644 c 1
 224 1644 l 1
 224 1657 l 1
EndSplineSet
EndChar

StartChar: uni03A9
Encoding: 937 937 386
Width: 992
VWidth: 0
GlyphClass: 2
Flags: W
HStem: 0 201<47 209 549 587.868 783 945> 1376.48 230.52<395.845 596.09>
VStem: 72 279<373.5 1328.95> 641 279<376.828 1328.95>
LayerCount: 2
UndoRedoHistory
Layer: 1
Undoes
EndUndoes
Redoes
EndRedoes
EndUndoRedoHistory
Fore
SplineSet
47 0 m 1
 47 201 l 1
 209 201 l 1
 144 300 72 419 72 630 c 2
 72 1189 l 2
 72 1462 218 1607 496 1607 c 0
 774 1607 920 1462 920 1189 c 2
 920 630 l 2
 920 419 848 300 783 201 c 1
 945 201 l 1
 945 0 l 1
 549 0 l 1
 549 202 l 1
 624 240 641 431 641 581 c 2
 641 1211 l 2
 641 1321.23 568.379 1376.48 495.819 1376.48 c 0
 423.379 1376.48 351 1321.41 351 1211 c 2
 351 581 l 2
 351 441 379 237 443 202 c 1
 443 0 l 1
 47 0 l 1
EndSplineSet
EndChar

StartChar: uni2074
Encoding: 8308 8308 401
Width: 852
VWidth: 0
GlyphClass: 2
Flags: W
HStem: 811 149<322 477 662 736> 1740 20G<392.927 662>
VStem: 477 185<605 811 960 1519>
LayerCount: 2
UndoRedoHistory
Layer: 1
Undoes
EndUndoes
Redoes
EndRedoes
EndUndoRedoHistory
Fore
SplineSet
399 1760 m 1
 662 1760 l 1
 662 960 l 1
 736 960 l 1
 736 811 l 1
 662 811 l 1
 662 605 l 1
 477 605 l 1
 477 811 l 1
 150 811 l 1
 150 940 l 1
 399 1760 l 1
477 960 m 1
 477 1519 l 1
 322 960 l 1
 477 960 l 1
EndSplineSet
EndChar

StartChar: uni2215
Encoding: 8725 8725 402
Width: 829
VWidth: 0
GlyphClass: 2
Flags: W
HStem: 0 21G<57 281.32> 1747 20G<520.692 746>
LayerCount: 2
UndoRedoHistory
Layer: 1
Undoes
EndUndoes
Redoes
EndRedoes
EndUndoRedoHistory
Fore
SplineSet
526 1767 m 1
 746 1767 l 1
 276 0 l 1
 57 0 l 1
 526 1767 l 1
EndSplineSet
EndChar

StartChar: uniFB00
Encoding: 64256 64256 404
Width: 1274
VWidth: 0
GlyphClass: 2
Flags: W
HStem: 0 21G<173 438 810 1075> 1250 191<57 173 438 810 1075 1227> 1593 167<530.845 590 1167.85 1227> 1597 187<344.5 589.091 981.5 1226.09>
VStem: 173 265<0 1250 1441 1585.59> 810 265<0 1250 1441 1585.59>
LayerCount: 2
UndoRedoHistory
Layer: 1
Undoes
EndUndoes
Redoes
EndRedoes
EndUndoRedoHistory
Fore
SplineSet
811 1519 m 2xdc
 811 1687 901 1784 1062 1784 c 0xdc
 1144 1784 1211 1766 1227 1760 c 1
 1227 1593 l 1xec
 1205 1596 1185 1597 1167 1597 c 0
 1099 1597 1075 1569 1075 1511 c 2
 1075 1441 l 1
 1227 1441 l 1
 1227 1250 l 1
 1075 1250 l 1
 1075 0 l 1
 810 0 l 1
 810 1250 l 1
 438 1250 l 1
 438 0 l 1
 173 0 l 1
 173 1250 l 1
 57 1250 l 1
 57 1441 l 1
 174 1441 l 1
 174 1519 l 2
 174 1687 264 1784 425 1784 c 0xdc
 507 1784 574 1766 590 1760 c 1
 590 1593 l 1xec
 568 1596 548 1597 530 1597 c 0
 462 1597 438 1569 438 1511 c 2
 438 1441 l 1
 811 1441 l 1
 811 1519 l 2xdc
EndSplineSet
EndChar

StartChar: uniFB01
Encoding: 64257 64257 405
Width: 1171
VWidth: 0
GlyphClass: 2
Flags: W
HStem: 0 21G<173 438 773 1038> 1309 191<57 173 438 773> 1607 193<773 1038> 1644 187<344.5 589.091>
VStem: 173 265<0 1309 1500 1632.59> 773 265<0 1309 1607 1800>
LayerCount: 2
UndoRedoHistory
Layer: 1
Undoes
EndUndoes
Redoes
EndRedoes
EndUndoRedoHistory
Fore
SplineSet
174 1566 m 2xdc
 174 1734 264 1831 425 1831 c 0
 507 1831 574 1812 590 1806 c 1
 590 1640 l 1
 568 1643 548 1644 530 1644 c 0
 462 1644 438 1616 438 1558 c 2
 438 1500 l 1
 1038 1500 l 1
 1038 0 l 1
 773 0 l 1
 773 1309 l 1
 438 1309 l 1
 438 0 l 1
 173 0 l 1
 173 1309 l 1
 57 1309 l 1
 57 1500 l 1
 174 1500 l 1
 174 1566 l 2xdc
773 1800 m 1xec
 1038 1800 l 1
 1038 1607 l 1
 773 1607 l 1
 773 1800 l 1xec
EndSplineSet
EndChar

StartChar: uniFB02
Encoding: 64258 64258 406
Width: 1171
VWidth: 0
GlyphClass: 2
Flags: W
HStem: 0 21G<173 438 772 1036> 1250 191<57 173 438 590> 1622 176<450.741 765.758>
VStem: 173 265<0 1250 1441 1607.88> 772 264<0 1602.35>
LayerCount: 2
UndoRedoHistory
Layer: 1
Undoes
EndUndoes
Redoes
EndRedoes
EndUndoRedoHistory
Fore
SplineSet
174 1519 m 2
 174 1689 195 1798 493 1798 c 0
 619 1798 793 1779 1036 1737 c 1
 1036 0 l 1
 772 0 l 1
 772 1593 l 1
 682 1613 616 1622 568 1622 c 0
 430 1622 438 1554 438 1511 c 2
 438 1441 l 1
 590 1441 l 1
 590 1250 l 1
 438 1250 l 1
 438 0 l 1
 173 0 l 1
 173 1250 l 1
 57 1250 l 1
 57 1441 l 1
 174 1441 l 1
 174 1519 l 2
EndSplineSet
EndChar

StartChar: uniFB03
Encoding: 64259 64259 407
Width: 1808
VWidth: 0
GlyphClass: 2
Flags: W
HStem: 0 21G<173 438 810 1075 1410 1675> 1309 191<57 173 438 810 1075 1410> 1607 193<1410 1675> 1645 166<530.845 590 1167.85 1227> 1649 187<344.5 589.091 981.5 1226.09>
VStem: 173 265<0 1309 1500 1637.59> 810 265<0 1309 1500 1637.59> 1410 265<0 1309 1607 1800>
LayerCount: 2
UndoRedoHistory
Layer: 1
Undoes
EndUndoes
Redoes
EndRedoes
EndUndoRedoHistory
Fore
SplineSet
811 1571 m 2xcf
 811 1739 901 1836 1062 1836 c 0xcf
 1144 1836 1211 1817 1227 1811 c 1
 1227 1645 l 1xd7
 1205 1648 1185 1649 1167 1649 c 0
 1099 1649 1075 1621 1075 1563 c 2
 1075 1500 l 1
 1675 1500 l 1
 1675 0 l 1
 1410 0 l 1
 1410 1309 l 1
 1075 1309 l 1
 1075 0 l 1
 810 0 l 1
 810 1309 l 1
 438 1309 l 1
 438 0 l 1
 173 0 l 1
 173 1309 l 1
 57 1309 l 1
 57 1500 l 1
 174 1500 l 1
 174 1571 l 2
 174 1739 264 1836 425 1836 c 0xcf
 507 1836 574 1817 590 1811 c 1
 590 1645 l 1xd7
 568 1648 548 1649 530 1649 c 0
 462 1649 438 1621 438 1563 c 2
 438 1500 l 1
 811 1500 l 1
 811 1571 l 2xcf
1410 1800 m 1xe7
 1675 1800 l 1
 1675 1607 l 1
 1410 1607 l 1
 1410 1800 l 1xe7
EndSplineSet
EndChar

StartChar: uniFB04
Encoding: 64260 64260 408
Width: 1808
VWidth: 0
GlyphClass: 2
Flags: W
HStem: 0 21G<173 438 810 1075 1409 1673> 1250 191<57 173 438 810 1075 1227> 1597 187<344.5 589.091> 1622 176<1087.74 1402.76>
VStem: 173 265<0 1250 1441 1585.59> 810 265<0 1250 1441 1607.88> 1409 264<0 1602.35>
LayerCount: 2
UndoRedoHistory
Layer: 1
Undoes
EndUndoes
Redoes
EndRedoes
EndUndoRedoHistory
Fore
SplineSet
811 1519 m 2xee
 811 1689 832 1798 1130 1798 c 0
 1256 1798 1430 1779 1673 1737 c 1
 1673 0 l 1
 1409 0 l 1
 1409 1593 l 1
 1319 1613 1253 1622 1205 1622 c 0xde
 1067 1622 1075 1554 1075 1511 c 2
 1075 1441 l 1
 1227 1441 l 1
 1227 1250 l 1
 1075 1250 l 1
 1075 0 l 1
 810 0 l 1
 810 1250 l 1
 438 1250 l 1
 438 0 l 1
 173 0 l 1
 173 1250 l 1
 57 1250 l 1
 57 1441 l 1
 174 1441 l 1
 174 1519 l 2
 174 1687 264 1784 425 1784 c 0
 507 1784 574 1766 590 1760 c 1
 590 1593 l 1
 568 1596 548 1597 530 1597 c 0
 462 1597 438 1569 438 1511 c 2
 438 1441 l 1
 811 1441 l 1
 811 1519 l 2xee
EndSplineSet
EndChar

StartChar: v
Encoding: 118 118 412
Width: 852
VWidth: 0
GlyphClass: 2
Flags: W
HStem: 0 21G<261.03 591.816> 1480 20G<46.9231 299.354 555.84 805.923>
LayerCount: 2
UndoRedoHistory
Layer: 1
Undoes
EndUndoes
Redoes
EndRedoes
EndUndoRedoHistory
Fore
SplineSet
557.923 1500 m 1
 805.923 1500 l 1
 588.923 0 l 1
 263.923 0 l 1
 46.9231 1500 l 1
 296.923 1500 l 1
 393.923 702 l 1
 426.923 343 l 1
 446.923 343 l 1
 474.923 703 l 1
 557.923 1500 l 1
EndSplineSet
EndChar

StartChar: w
Encoding: 119 119 413
Width: 1258
VWidth: 0
GlyphClass: 2
Flags: W
HStem: 0 21G<247.12 476.675 785.103 1022.33> 1480 20G<48.8 274.201 506.984 748.961 985.642 1209.8>
LayerCount: 2
UndoRedoHistory
Layer: 1
Undoes
EndUndoes
Redoes
EndRedoes
EndUndoRedoHistory
Fore
SplineSet
987.8 1500 m 1
 1209.8 1500 l 1
 1019.8 0 l 1
 787.8 0 l 1
 635.8 1127 l 1
 473.8 0 l 1
 249.8 0 l 1
 48.8 1500 l 1
 271.8 1500 l 1
 347.8 867 l 1
 381.8 545 l 1
 387.8 545 l 1
 420.8 868 l 1
 509.8 1500 l 1
 584.8 1500 l 1
 688.8 1500 l 1
 745.8 1500 l 1
 843.8 880 l 1
 885.8 545 l 1
 891.8 545 l 1
 920.8 879 l 1
 987.8 1500 l 1
EndSplineSet
EndChar

StartChar: x
Encoding: 120 120 418
Width: 840
VWidth: 0
GlyphClass: 2
Flags: W
HStem: 0 21G<26.5217 277.714 560.529 813.522> 1480 20G<43.5217 285.635 558.425 798.522>
LayerCount: 2
UndoRedoHistory
Layer: 1
Undoes
EndUndoes
Redoes
EndRedoes
EndUndoRedoHistory
Fore
SplineSet
43.5217 1500 m 1
 278.522 1500 l 1
 432.522 1067 l 1
 564.522 1500 l 1
 798.522 1500 l 1
 544.522 755 l 1
 813.522 0 l 1
 567.522 0 l 1
 410.522 449 l 1
 271.522 0 l 1
 26.5217 0 l 1
 293.522 783 l 1
 43.5217 1500 l 1
EndSplineSet
EndChar

StartChar: y
Encoding: 121 121 419
Width: 859
VWidth: 0
GlyphClass: 2
Flags: W
HStem: -265 183<88.5806 285.657> 1480 20G<42.5806 297.084 574.286 827.581>
LayerCount: 2
UndoRedoHistory
Layer: 1
Undoes
EndUndoes
Redoes
EndRedoes
EndUndoRedoHistory
Fore
SplineSet
576.581 1500 m 1
 827.581 1500 l 1
 567.581 -64 l 1
 545.581 -207 509.581 -265 370.581 -265 c 2
 88.5806 -265 l 1
 88.5806 -82 l 1
 175.581 -82 l 2
 234.581 -82 278.581 -76 283.581 -42 c 1
 293.581 -25 288.581 28 282.581 68 c 2
 42.5806 1500 l 1
 294.581 1500 l 1
 390.581 733 l 1
 430.581 329 l 1
 452.581 329 l 1
 488.581 733 l 1
 576.581 1500 l 1
EndSplineSet
EndChar

StartChar: yen
Encoding: 165 165 423
Width: 866
VWidth: 0
GlyphClass: 2
Flags: W
HStem: 0 21<312.368 580.368> 315 153<94 340 550 774> 619 151<94 340 550 774> 1740 20<17.3684 278.657 601.657 861.368>
VStem: 312.368 268<0 754.367> 340 210<468 619>
CounterMasks: 1 70
LayerCount: 2
UndoRedoHistory
Layer: 1
Undoes
EndUndoes
Redoes
EndRedoes
EndUndoRedoHistory
Fore
SplineSet
94 770 m 1xf4
 774 770 l 1
 774 619 l 1
 550 619 l 1
 550 468 l 1
 774 468 l 1
 774 315 l 1
 94 315 l 1
 94 468 l 1
 340 468 l 1
 340 619 l 1
 94 619 l 1
 94 770 l 1xf4
EndSplineSet
Refer: 114 89 N 1 0 0 1 0 0 2
EndChar

StartChar: z
Encoding: 122 122 425
Width: 732
VWidth: 0
GlyphClass: 2
Flags: W
HStem: 0 222<344.333 658.333> 1273 227<98.3333 403.333>
VStem: 73.3333 599
LayerCount: 2
UndoRedoHistory
Layer: 1
Undoes
EndUndoes
Redoes
EndRedoes
EndUndoRedoHistory
Fore
SplineSet
98.3333 1500 m 1
 672.333 1500 l 1
 672.333 1309 l 1
 344.333 222 l 1
 658.333 222 l 1
 658.333 0 l 1
 73.3333 0 l 1
 73.3333 200 l 1
 403.333 1273 l 1
 98.3333 1273 l 1
 98.3333 1500 l 1
EndSplineSet
EndChar

StartChar: zero
Encoding: 48 48 429
Width: 1010
VWidth: 0
GlyphClass: 2
Flags: W
HStem: -21 231<408.525 590.69> 1550 231<409.731 591.893>
VStem: 103 267<242.935 1516.48> 631 268<254.089 1516.48>
LayerCount: 2
UndoRedoHistory
Layer: 1
Undoes
EndUndoes
Redoes
EndRedoes
EndUndoRedoHistory
Fore
SplineSet
103 1316 m 2
 103 1619 219 1781 501 1781 c 0
 783 1781 899 1619 899 1316 c 2
 899 475 l 2
 899 162 789 -21 501 -21 c 0
 213 -21 103 162 103 475 c 2
 103 1316 l 2
631 1327 m 2
 631 1522 570 1550 500 1550 c 0
 432 1550 370 1527 370 1328 c 2
 370 470 l 2
 370 243 418 210 500 210 c 0
 577 210 631 247 631 470 c 2
 631 1327 l 2
EndSplineSet
EndChar
